<?xml version="1.0" standalone="no"?><!DOCTYPE svg PUBLIC "-//W3C//DTD SVG 1.1//EN" "http://www.w3.org/Graphics/SVG/1.1/DTD/svg11.dtd"><svg t="1746644072723" class="icon" viewBox="0 0 1024 1024" version="1.1" xmlns="http://www.w3.org/2000/svg" p-id="22197" xmlns:xlink="http://www.w3.org/1999/xlink" width="200" height="200"><path d="M387.392 827.168c-40.384-36.992-52.16-114.752-35.36-171.072a165.76 165.76 0 0 0 111.488 53.12 309.76 309.76 0 0 0 188.224-23.488c6.88-3.392 13.216-7.904 20.736-12.48a112 112 0 0 1 5.12 49.76 136.32 136.32 0 0 1-57.536 96.672c-12.928 9.6-26.624 18.208-40 27.264a83.616 83.616 0 0 0-36.8 107.904l1.536 5.152a108.8 108.8 0 0 1-48-41.12 115.2 115.2 0 0 1-18.496-62.784 288 288 0 0 0-1.6-33.184c-3.648-26.592-16.128-38.528-39.616-39.2a46.4 46.4 0 0 0-48.224 37.76c-0.384 1.792-0.896 3.584-1.472 5.696M156.832 640a568 568 0 0 1 236.8-64l93.216-268.16a24.48 24.48 0 0 1 48.864 0L630.4 576a455.68 455.68 0 0 1 236.768 64S662.528 92.064 662.144 90.944C656.32 74.56 646.464 64 633.184 64h-243.808c-13.28 0-22.72 10.56-28.928 26.944z" fill="#7C4DFF" p-id="22198"></path></svg>