<?xml version="1.0" standalone="no"?><!DOCTYPE svg PUBLIC "-//W3C//DTD SVG 1.1//EN" "http://www.w3.org/Graphics/SVG/1.1/DTD/svg11.dtd"><svg t="1746637529807" class="icon" viewBox="0 0 1024 1024" version="1.1" xmlns="http://www.w3.org/2000/svg" p-id="17872" xmlns:xlink="http://www.w3.org/1999/xlink" width="200" height="200"><path d="M178.976 28.16h666.048a150.816 150.816 0 0 1 150.816 150.816v439.84c0 208.224-168.8 377.024-377.024 377.024H178.976A150.816 150.816 0 0 1 28.16 845.024V178.976A150.816 150.816 0 0 1 178.976 28.16z" fill="#FFC06E" p-id="17873"></path><path d="M288.256 531.072c0 56.64-38.816 110.336-41.792 110.336-2.976 5.952-8.96 5.952-14.912 5.952-2.976 0-8.96 0-11.936-2.976-8.96-5.984-8.96-17.92-2.976-26.848 0 0 32.832-44.736 32.832-86.464 0-44.736-32.832-86.464-32.832-86.464-5.984-8.96-5.984-20.864 2.976-26.848 8.96-8.96 20.896-5.952 26.88 3.008 2.976 0 41.728 53.664 41.728 110.304z m519.104 86.464c5.984 8.96 5.984 20.864-2.976 26.848-2.976 2.976-8.96 2.976-11.936 2.976a22.784 22.784 0 0 1-14.912-5.952c-3.008-3.008-41.76-53.696-41.76-110.336s38.752-110.304 41.76-110.304c5.952-8.96 17.888-8.96 26.848-3.008 8.96 5.984 8.96 17.92 2.976 26.848 0 0-32.832 41.728-32.832 86.464s32.832 86.464 32.832 86.464z" fill="#FFFFFF" p-id="17874"></path><path d="M686.016 258.56c20.896 0 41.76 8.96 53.696 26.848 14.912 17.856 17.92 41.728 2.976 65.6-29.824 83.456-47.712 155.04-47.712 196.8 0 29.76 11.936 68.544 35.776 110.304 11.936 23.84 11.936 50.688-2.976 74.528a64 64 0 0 1-56.672 32.8h-319.232a64 64 0 0 1-56.704-32.8c-14.912-20.864-17.888-50.688-5.952-71.552 20.896-41.76 32.832-83.52 32.832-116.288 0-41.76-17.92-110.336-47.744-196.8-2.976-8.96-2.976-14.912-2.976-23.84 0-11.936 5.952-26.848 14.912-38.752 11.936-17.92 32.8-26.848 53.696-26.848h346.08z m-35.136 27.68h-282.368c-16.768 0.032-39.456 0.96-51.04 23.68-5.12 8.832-7.52 17.824-7.52 28.416 0 10.56 5.12 18.912 7.52 26.816 24.16 76.288 38.656 136.768 38.656 173.6 0 28.928-9.664 65.76-26.56 102.56-9.696 18.432-14.528 48.512 0 69.984 9.632 18.432 31.36 22.08 50.72 22.08h258.496c19.328 0 45.92-3.648 55.584-22.08 12.064-21.024 2.4-51.552-7.264-72.608-19.328-36.8-28.992-71.04-28.992-97.28 0-36.864 14.496-99.968 38.656-173.632 12.096-21.024 17.6-42.08 5.536-57.856-9.664-15.776-34.528-23.68-51.424-23.68z" fill="#FFFFFF" p-id="17875"></path><path d="M595.328 530.432l-117.248 92.16a21.44 21.44 0 0 1-30.816-4.544 23.552 23.552 0 0 1-4.384-13.856v-184.384c0-12.704 9.824-23.008 21.952-23.008 4.8 0 9.344 1.664 13.248 4.576l117.248 92.16a23.808 23.808 0 0 1 0 36.864v0.032z" fill="#FFFFFF" p-id="17876"></path></svg>