<?xml version="1.0" standalone="no"?><!DOCTYPE svg PUBLIC "-//W3C//DTD SVG 1.1//EN" "http://www.w3.org/Graphics/SVG/1.1/DTD/svg11.dtd"><svg t="1746633760019" class="icon" viewBox="0 0 1054 1024" version="1.1" xmlns="http://www.w3.org/2000/svg" p-id="12326" xmlns:xlink="http://www.w3.org/1999/xlink" width="205.859375" height="200"><path d="M0 0h1054.72v1024H0z" fill="#CCCCCC" fill-opacity="0" p-id="12327"></path><path d="M788.34688 429.86496c-8.11008-15.36-194.56 128-209.92 174.08s20.5824 71.8848 20.5824 71.8848c58.29632 139.55072 283.70944 213.8624 261.12 219.9552H1028.98688c41.44128-52.3264-317.14304-121.5488-240.64-465.92z" fill="#B2D1DF" p-id="12328"></path><path d="M30.72 896h839.71072c46.04928-46.08-249.15968-221.85984-250.88-235.52C440.32 450.56 484.00384 201.3184 506.91072 163.84 302.08 189.44 47.38048 535.18336 30.75072 890.88L30.72 896z" fill="#609EBA" p-id="12329"></path><path d="M829.44 158.72c6.8608-91.77088-158.03392-148.67456-184.32 0 18.8416 154.27584 194.63168 91.88352 184.32 0z" fill="#5485C4" p-id="12330"></path></svg>