<?xml version="1.0" standalone="no"?><!DOCTYPE svg PUBLIC "-//W3C//DTD SVG 1.1//EN" "http://www.w3.org/Graphics/SVG/1.1/DTD/svg11.dtd"><svg t="1746629767315" class="icon" viewBox="0 0 1099 1024" version="1.1" xmlns="http://www.w3.org/2000/svg" p-id="6414" xmlns:xlink="http://www.w3.org/1999/xlink" width="214.6484375" height="200"><path d="M260.196236 184.521903h-251.843429v83.94781h251.843429v-83.94781z" p-id="6415" fill="#dbb613"></path><path d="M8.352807 184.521903h83.94781v839.478097h-83.94781v-839.478097z" p-id="6416" fill="#dbb613"></path><path d="M8.352807 940.010216h1091.321526v83.94781h-1091.321526v-83.94781z" p-id="6417" fill="#dbb613"></path><path d="M1099.674333 268.427739h-83.947809v755.530287h83.947809v-755.530287z" p-id="6418" fill="#dbb613"></path><path d="M763.883094 184.521903h335.791239v83.94781h-335.791239v-83.94781z" p-id="6419" fill="#dbb613"></path><path d="M329.537127 475.568959l274.677233 352.03514c23.463413 24.554734 46.674982 25.184343 67.745883-2.980147l229.975025-347.376037c21.028926-38.15428 3.273965-50.326712-40.420871-48.689729l-498.062355 0.923426c-39.749288 1.427113-55.237659 12.424276-33.914915 46.087347z" p-id="6420" fill="#dbb613"></path><path d="M501.210398 535.88546C481.146871 161.05849 0 0.718174 0 0.718174s594.728258-40.127053 751.458819 480.349367c-79.54055 90.999426-112.490065 130.70674-250.248421 54.817919z" p-id="6421" fill="#dbb613"></path></svg>