<?xml version="1.0" standalone="no"?><!DOCTYPE svg PUBLIC "-//W3C//DTD SVG 1.1//EN" "http://www.w3.org/Graphics/SVG/1.1/DTD/svg11.dtd"><svg t="1746634765165" class="icon" viewBox="0 0 1024 1024" version="1.1" xmlns="http://www.w3.org/2000/svg" p-id="15954" xmlns:xlink="http://www.w3.org/1999/xlink" width="200" height="200"><path d="M938.665813 67.640889v442.993778a41.472 41.472 0 0 1-41.244444 40.675555 41.984 41.984 0 0 1-39.537778-29.240889 36.977778 36.977778 0 0 1-1.706667-11.434666V94.549333a12.515556 12.515556 0 0 0-12.060444-12.003555H179.312924c-6.826667 0-12.003556 5.688889-12.003555 12.003555v797.184c0 6.826667 5.12 12.060444 12.003555 12.060445H237.794702c6.826667 0 12.572444 1.706667 18.318222 4.551111 14.336 6.257778 24.064 20.650667 24.064 37.262222a42.439111 42.439111 0 0 1-42.382222 42.382222H151.835591A67.128889 67.128889 0 0 1 85.33248 920.462222V85.902222A85.902222 85.902222 0 0 1 171.291591 0h700.871111A67.128889 67.128889 0 0 1 938.665813 67.640889" fill="#848AA6" p-id="15955"></path><path d="M562.061369 852.650667c-14.961778 5.006222-28.899556 9.955556-41.358222 14.506666a86.471111 86.471111 0 0 0-25.372445 13.084445 36.238222 36.238222 0 0 0-7.509333 13.084444A63.829333 63.829333 0 0 0 483.554702 910.222222h398.222222a54.442667 54.442667 0 0 0-3.697777-15.36 36.352 36.352 0 0 0-9.443556-15.644444 72.476444 72.476444 0 0 0-22.926222-11.719111l-6.144-2.218667c-11.036444-3.982222-22.812444-8.248889-36.067556-12.629333l-5.688889-1.592889a431.331556 431.331556 0 0 1-38.627555-14.791111 60.757333 60.757333 0 0 1-28.672-26.339556l-3.299556-6.599111a58.936889 58.936889 0 0 1-5.518222-25.088 49.152 49.152 0 0 1 15.189333-31.288889 46.990222 46.990222 0 0 0 8.704-13.141333l3.413334-8.931556 8.533333-5.347555a18.944 18.944 0 0 0 9.045333-17.294223 30.890667 30.890667 0 0 0-2.673777-16.327111l-3.584-7.054222 3.925333-34.474667a47.672889 47.672889 0 0 0-5.12-25.941333 83.854222 83.854222 0 0 0-18.488889-25.6 92.728889 92.728889 0 0 0-27.079111-17.464889 78.108444 78.108444 0 0 0-62.464 0 93.184 93.184 0 0 0-27.022222 17.464889 75.207111 75.207111 0 0 0-17.692445 24.007111 61.838222 61.838222 0 0 0-5.688889 29.411556l0.910223 7.964444c0.568889 5.688889 1.024 10.524444 1.763555 14.677334l1.422222 7.964444-3.242666 7.509333a31.914667 31.914667 0 0 0-2.787556 14.165334c-0.455111 10.24 3.413333 17.294222 9.557334 21.333333l7.224888 4.721778 3.470223 7.452444c2.389333 5.233778 5.12 9.614222 8.533333 14.051556l0.910222 0.910222a47.331556 47.331556 0 0 1 14.904889 27.136c0.227556 11.093333-1.536 19.797333-5.233778 28.444444v0.682667l-3.242666 6.656a60.416 60.416 0 0 1-28.103111 25.998222 423.424 423.424 0 0 1-39.253334 15.132445l-5.518222 1.592889zM886.555591 967.111111h-409.031111a54.215111 54.215111 0 0 1-37.319111-15.701333 46.648889 46.648889 0 0 1-13.539556-35.498667l0.682667-8.647111c0.682667-11.377778 3.015111-21.902222 7.054222-32.483556 3.697778-12.060444 11.264-24.462222 21.902222-35.384888l5.006223-4.551112c12.515556-9.671111 27.136-17.408 42.097777-22.357333 12.970667-4.835556 28.842667-10.638222 45.909334-16.384l5.518222-1.649778c8.931556-3.128889 17.521778-6.656 26.168889-10.467555l0.341333-0.682667a3.072 3.072 0 0 0 0.284445-0.625778 132.437333 132.437333 0 0 1-13.767111-20.935111 76.231111 76.231111 0 0 1-27.932445-63.260444 71.907556 71.907556 0 0 1 3.982222-27.704889l-1.137777-10.808889-0.910223-9.272889c-1.024-21.048889 2.446222-39.196444 10.069334-55.864889 6.542222-15.018667 16.782222-29.411556 30.321777-42.268444 12.970667-12.288 27.875556-22.016 44.259556-29.070222 37.148444-15.928889 80.440889-14.791111 112.583111 0.398222 15.473778 6.656 30.321778 16.384 43.235556 28.615111 12.231111 11.605333 22.414222 25.713778 30.151111 41.927111 8.419556 16.554667 12.117333 35.953778 10.467555 55.580444l-2.275555 19.740445c3.811556 10.467556 5.404444 21.560889 4.664889 32.483555 1.706667 20.707556-8.704 43.690667-27.648 59.335112-4.039111 8.078222-9.102222 14.848-13.653334 20.650666l-1.365333 1.706667 0.170667 0.341333 1.024-0.568889c8.874667 4.096 18.033778 7.793778 27.704889 11.093334l3.982222 1.251555c15.815111 5.12 29.696 10.24 42.439111 14.961778 20.536889 6.997333 34.986667 14.791111 46.819555 24.519111l4.152889 3.868445c10.638222 10.922667 18.204444 23.324444 22.414223 36.864 1.251556 3.356444 2.389333 6.826667 3.299555 10.581333l3.925333-0.170667v30.037334c0 28.330667-23.324444 50.403556-52.053333 50.403555z" fill="#848AA6" p-id="15956"></path><path d="M654.278258 252.757333H286.491591a37.205333 37.205333 0 0 1 0-74.183111h367.786667a37.205333 37.205333 0 0 1 0 74.24M654.278258 399.36H286.491591a37.205333 37.205333 0 0 1 0-74.183111h367.786667a37.205333 37.205333 0 0 1 0 74.24M384.738702 564.736H286.491591a37.205333 37.205333 0 0 1-37.091555-37.091556c0-20.48 16.668444-37.091556 37.091555-37.091555h98.247111c20.366222 0 37.034667 16.668444 37.034667 37.091555a37.205333 37.205333 0 0 1-37.034667 37.091556M384.738702 736.711111H286.491591a37.205333 37.205333 0 0 1-37.091555-37.148444c0-20.48 16.668444-37.091556 37.091555-37.091556h98.247111c20.366222 0 37.034667 16.668444 37.034667 37.091556a37.205333 37.205333 0 0 1-37.034667 37.091555" fill="#445393" p-id="15957"></path></svg>