<?xml version="1.0" standalone="no"?><!DOCTYPE svg PUBLIC "-//W3C//DTD SVG 1.1//EN" "http://www.w3.org/Graphics/SVG/1.1/DTD/svg11.dtd"><svg t="1746634678956" class="icon" viewBox="0 0 1024 1024" version="1.1" xmlns="http://www.w3.org/2000/svg" p-id="14560" id="mx_n_1746634678956" data-spm-anchor-id="a313x.search_index.0.i34.11013a81Yvomnt" xmlns:xlink="http://www.w3.org/1999/xlink" width="200" height="200"><path d="M592.798476 24.039619l251.270095 7.509333v72.655238l-113.030095 98.54781-7.850666 66.072381 70.558476 13.897143 111.469714-140.775619 70.89981 19.992381v65.194666l-9.606096 139.751619-121.075809 138.630096-205.04381-0.048762-35.254857 37.839238c78.214095 38.424381 154.38019 90.502095 206.06781 138.776381 101.083429 94.354286 139.897905 205.336381 94.841904 256.341333l-9.459809 9.216-4.291048 4.632381c-75.922286 81.432381-277.211429-49.444571-396.921905-291.449905l-295.789714 316.757334-120.539428-42.179048L19.309714 807.984762l318.366476-310.125714L13.604571 149.552762 128.487619 51.2l324.266667 334.506667 9.362285-9.069715 16.140191-211.139047 114.590476-141.507048z m-22.576762 556.568381l-39.155809 41.935238 5.851428 12.483048c56.905143 117.564952 127.609905 202.99581 200.070096 251.66019 51.053714 34.279619 96.109714 44.27581 114.346666 36.035048l0.877715-0.536381 0.975238-1.560381 10.532571-10.727619 5.656381-5.266286c0.146286-0.292571 0.195048-0.536381 0.731429-0.877714l1.755428-0.926476 0.780191-1.219048c15.213714-28.233143-12.190476-102.887619-85.674667-175.201524l-9.020952-8.679619c-51.102476-47.737905-129.219048-100.303238-207.725715-137.118476z m45.251048-507.172571l-89.770667 110.933333-16.335238 214.406095-102.4 99.718095-35.59619 35.693715-0.487619-0.585143-292.717715 285.062095 36.327619 77.482667 71.094858 24.868571 433.639619-464.262095 204.019809-0.048762 95.670857-109.470476 8.43581-121.758476v-26.624l-4.096-1.170286-109.714286 138.630095-144.091429-28.379428 15.408762-129.511619L795.306667 81.92v-3.120762l-179.833905-5.412571zM125.366857 118.00381l-41.447619 35.498666L372.540952 463.872l44.665905-44.714667L125.366857 118.00381z" p-id="14561" data-spm-anchor-id="a313x.search_index.0.i33.11013a81Yvomnt" class="" fill="#ecac11"></path></svg>