<?xml version="1.0" standalone="no"?><!DOCTYPE svg PUBLIC "-//W3C//DTD SVG 1.1//EN" "http://www.w3.org/Graphics/SVG/1.1/DTD/svg11.dtd"><svg t="1746633206631" class="icon" viewBox="0 0 5802 1024" version="1.1" xmlns="http://www.w3.org/2000/svg" p-id="11294" xmlns:xlink="http://www.w3.org/1999/xlink" width="1133.203125" height="200"><path d="M195.003733 182.749867l0.170667 0.512v364.987733l313.890133 182.1696h1.024l313.856-182.1696 0.136534-0.512-0.136534-364.475733 0.136534-0.512L510.0544 0h-0.989867L195.1744 182.340267l-0.170667 0.4096zM0 1024h1019.221333v-204.9024H0V1024z" fill="#0FA06D" p-id="11295"></path><path d="M1746.2272 581.632l-80.657067-133.393067h-109.499733l119.3984 201.8304a210.193067 210.193067 0 0 1-105.3696 24.7808c-151.313067 0-218.043733-119.808-218.043733-260.7104s67.4816-260.061867 217.873066-260.061866c146.8416 0 213.845333 114.244267 216.951467 250.7776l0.1024 10.0352a315.904 315.904 0 0 1-40.7552 166.741333zM1570.679467 44.509867c-221.5936 0-339.797333 161.860267-339.797334 369.664 0 207.735467 118.203733 369.595733 339.797334 369.595733a343.2448 343.2448 0 0 0 162.5088-36.932267l56.763733 95.914667h114.619733l-93.661866-153.838933c63.829333-67.242667 97.655467-163.908267 97.655466-274.773334h0.750934c0-207.7696-117.009067-369.629867-338.6368-369.629866z m412.330666 108.782933h115.541334V44.544h-115.5072v108.7488z m1.092267 617.437867h112.571733V262.280533h-112.571733V770.730667zM2477.9776 249.344c-67.652267 0-116.872533 22.971733-146.432 61.917867h-23.9616V262.2464h-108.544V770.730667h112.5376v-272.964267c0-79.291733 50.858667-148.1728 131.515733-148.1728 74.752 0 112.571733 41.8816 112.571734 124.757333v296.379734h112.571733v-317.576534c0-126.8736-63.7952-203.776-190.2592-203.776z m504.490667 420.590933c-87.586133 0-138.410667-65.672533-138.410667-161.860266s50.824533-163.0208 138.4448-163.0208c94.549333 0 141.380267 75.025067 141.380267 163.0208 0 83.968-43.758933 156.842667-132.096 161.5872l-9.284267 0.273066z m141.4144-358.058666h-23.893334c-22.9376-32.290133-69.768533-61.952-145.408-61.952-136.362667 0-223.709867 110.421333-223.709866 258.1504 0 147.797333 84.650667 257.774933 223.1296 257.774933 72.704 0 117.589333-26.965333 141.380266-61.986133h25.258667v34.5088c0 88.951467-38.843733 148.206933-134.485333 148.206933-68.676267 0-112.571733-20.002133-123.460267-70.792533h-111.581867c11.229867 106.837333 101.819733 163.703467 236.373334 163.703466 148.3776 0 244.974933-89.8048 244.974933-233.6768V262.2464h-108.544v49.629867zM3642.026667 674.816c-146.909867 0-214.2208-119.739733-214.2208-260.7104 0-140.936533 67.652267-260.676267 214.016-260.676267 83.626667 0 132.573867 33.962667 155.477333 101.819734h125.405867c-25.668267-126.839467-129.2288-210.7392-280.712534-210.7392-213.6064 0-334.472533 154.589867-334.472533 369.322666 0 214.698667 120.388267 369.629867 334.506667 369.629867 160.699733 0 265.898667-93.661867 289.245866-228.5568h-124.928c-18.8416 75.434667-76.561067 119.9104-164.352 119.9104z m360.8576 96.0512h112.571733V44.544h-112.571733v726.357333z m439.0912-82.295467c-99.157333 0-143.4624-83.012267-143.4624-171.9296 0-88.8832 44.475733-170.734933 143.4624-170.734933 98.986667 0 143.291733 81.851733 143.291733 170.734933 0 90.999467-44.1344 171.9296-143.291733 171.9296z m0-438.6816c-159.402667 0-256.034133 111.616-256.034134 266.752 0 155.170133 96.768 267.810133 256.034134 267.810134s255.8976-111.889067 255.8976-267.810134c0-154.7264-96.4608-266.752-255.8976-266.752z m675.771733 285.2864c0 79.2576-50.858667 148.206933-131.515733 148.206934-74.581333 0-112.401067-41.984-112.401067-124.8256V262.2464h-112.605867v317.713067c0 126.839467 63.829333 203.810133 190.293334 203.810133 67.652267 0 116.736-23.005867 146.261333-61.986133h23.9616v48.9472h108.578133V262.2464h-112.571733v272.964267z m434.176 153.3952c-92.637867 0-138.410667-74.103467-138.410667-171.895466 0-97.792 45.738667-170.734933 138.376534-170.734934 98.577067 0 140.3904 81.8176 140.3904 170.734934 0 88.064-39.150933 166.673067-131.003734 171.656533l-9.386666 0.238933z m138.171733-644.096V311.296h-23.995733c-27.170133-36.0448-70.587733-62.122667-145.339733-62.122667-136.533333 0-219.136 114.8928-219.136 266.786134 0 151.893333 81.749333 267.810133 219.136 267.810133 75.502933 0 121.4464-26.965333 149.367466-61.952h23.893334v48.913067H5802.666667V44.544h-112.571734z" fill="#393945" p-id="11296"></path></svg>