<?xml version="1.0" standalone="no"?>
<!DOCTYPE svg PUBLIC "-//W3C//DTD SVG 20010904//EN"
 "http://www.w3.org/TR/2001/REC-SVG-20010904/DTD/svg10.dtd">
<svg version="1.0" xmlns="http://www.w3.org/2000/svg"
 width="520.000000pt" height="416.000000pt" viewBox="0 0 520.000000 416.000000"
 preserveAspectRatio="xMidYMid meet">

<g transform="translate(0.000000,416.000000) scale(0.100000,-0.100000)"
fill="#000000" stroke="none">
<path d="M0 3991 l0 -169 68 5 c87 6 156 38 160 74 2 21 11 29 45 39 23 6 49
18 57 26 9 7 36 13 60 13 51 -1 116 7 130 16 6 3 10 12 11 18 0 7 26 25 57 40
l57 28 14 -20 c8 -13 24 -21 43 -21 25 0 27 -2 18 -19 -7 -13 -7 -22 0 -26 20
-12 9 -32 -25 -48 -20 -9 -43 -17 -53 -17 -26 0 -77 -38 -77 -57 0 -12 -20
-28 -57 -47 -32 -15 -58 -35 -58 -42 0 -8 -8 -14 -17 -15 -10 0 -31 -2 -48 -2
-37 -2 -45 -29 -13 -45 13 -6 17 -11 10 -11 -21 -1 -3 -21 20 -21 13 0 18 -5
15 -14 -4 -9 1 -17 12 -21 10 -3 18 -13 17 -23 -1 -11 6 -17 19 -17 28 0 30
62 2 71 -11 4 -23 0 -28 -7 -7 -11 -9 -10 -9 3 0 25 70 40 118 24 16 -5 22 -3
22 7 0 17 123 59 231 78 73 13 149 5 130 -14 -19 -19 -12 -37 16 -37 37 0 25
-8 -38 -24 -47 -12 -59 -12 -99 1 -36 12 -54 13 -93 4 -27 -6 -60 -11 -74 -11
-21 0 -23 -2 -13 -15 10 -12 7 -19 -16 -40 -15 -14 -33 -25 -40 -25 -7 0 -25
-15 -39 -34 -17 -22 -40 -38 -63 -44 l-37 -9 50 -22 c32 -15 85 -26 150 -32
100 -9 215 -37 215 -52 0 -12 -67 -38 -132 -52 -39 -9 -73 -10 -105 -3 -31 5
-55 5 -68 -2 -11 -6 -45 -19 -75 -29 -30 -11 -56 -23 -57 -28 -11 -33 210 -45
355 -19 52 9 72 10 72 2 0 -11 66 -11 100 0 12 4 12 6 1 14 -11 6 -6 12 19 25
35 18 35 17 -10 -50 -208 -307 -354 -695 -391 -1040 -13 -123 -7 -428 11 -537
11 -67 11 -67 -17 -95 -16 -15 -19 -20 -8 -10 12 9 25 17 31 17 5 0 17 -43 27
-95 16 -81 17 -99 5 -113 -11 -15 -11 -16 3 -4 14 11 18 5 34 -50 41 -146 157
-401 247 -539 22 -35 41 -69 42 -76 1 -7 16 -28 32 -46 17 -17 57 -65 90 -106
81 -102 200 -221 314 -314 163 -133 151 -120 144 -166 -4 -28 -3 -41 5 -41 6
0 11 11 11 24 0 43 21 48 72 15 38 -25 48 -38 57 -74 12 -49 24 -54 72 -30 27
14 32 14 51 0 13 -8 41 -15 63 -15 l40 1 -45 23 -45 24 40 16 c21 9 49 19 62
22 13 4 23 9 23 13 0 13 -24 31 -40 31 -14 0 -23 12 -48 63 -10 19 38 -11 79
-50 52 -50 63 -50 122 6 32 31 37 40 32 71 l-5 35 12 -32 c12 -36 15 -37 85
-24 80 16 154 21 148 11 -4 -6 -23 -10 -43 -10 -20 -1 -66 -11 -102 -23 l-65
-22 2 -57 c2 -87 12 -98 87 -98 55 0 64 3 73 22 l10 23 12 -23 c10 -19 20 -22
66 -22 l55 0 0 92 c0 50 3 89 6 85 3 -3 6 -44 6 -91 0 -78 2 -86 19 -86 10 0
19 6 20 13 0 6 3 32 5 57 2 25 5 71 6 102 2 41 7 58 16 58 10 0 13 -12 11 -42
-1 -24 -2 -76 -1 -115 l2 -73 65 0 c59 0 80 9 56 24 -8 6 -13 28 -25 119 -3
22 -12 52 -20 68 -12 23 -12 29 -1 29 14 0 16 -6 53 -176 5 -22 12 -46 16 -52
5 -9 58 -12 178 -12 l171 0 -6 47 -5 47 19 -25 c11 -15 16 -33 12 -47 l-5 -22
176 0 177 0 -27 35 c-25 33 -26 37 -10 48 13 10 15 18 8 38 -6 14 -17 31 -26
38 -9 7 -16 27 -16 43 0 16 -10 52 -22 80 -20 47 -20 52 -5 63 9 7 17 15 17
19 0 4 -25 58 -55 121 -30 64 -55 120 -55 126 0 5 -9 29 -21 52 -46 92 12 7
67 -98 31 -60 59 -112 61 -114 1 -2 12 4 22 13 17 15 19 29 17 111 -2 52 0
111 4 132 6 34 7 29 14 -42 4 -44 11 -107 16 -140 4 -33 5 -85 1 -115 -8 -57
-9 -56 -27 26 -4 20 -8 24 -17 15 -12 -12 -9 -28 37 -161 29 -82 30 -90 17
-90 -5 0 -11 15 -15 32 -7 36 -54 113 -63 104 -7 -7 15 -91 33 -126 7 -14 18
-39 24 -57 15 -41 43 -67 40 -38 -4 34 0 46 10 40 6 -3 10 -30 10 -58 1 -66
15 -45 25 35 7 58 1 70 -23 46 -9 -9 -12 -3 -12 29 0 24 5 44 13 46 8 4 8 8 2
14 -23 18 -31 70 -24 143 4 41 8 83 8 93 1 16 3 17 16 3 18 -17 19 -42 4 -84
-6 -17 -9 -39 -7 -49 3 -11 9 -1 18 27 14 46 30 74 30 52 0 -6 -9 -35 -20 -64
-11 -29 -20 -61 -20 -71 0 -29 24 -14 31 19 3 16 14 45 23 64 l16 35 -4 -38
c-5 -42 1 -70 15 -61 5 3 9 -2 9 -10 0 -8 7 -19 16 -24 14 -8 14 -13 -1 -60
-10 -29 -21 -55 -26 -58 -5 -3 -9 -13 -9 -23 0 -10 -9 -26 -20 -36 -21 -19
-28 -75 -10 -75 6 0 10 -7 10 -16 0 -11 -5 -14 -17 -10 -9 4 -20 1 -25 -6 -6
-10 -12 -9 -23 6 -17 22 -29 17 -19 -8 5 -12 19 -16 61 -16 l54 0 24 53 c14
28 25 60 25 70 0 10 7 29 16 42 9 14 14 31 11 39 -3 8 2 16 12 19 11 3 23 20
29 43 5 22 10 31 11 22 1 -10 8 -18 16 -18 9 0 15 -9 15 -24 0 -13 3 -31 6
-40 3 -9 1 -16 -5 -16 -6 0 -11 7 -11 15 0 12 -3 13 -19 3 -11 -7 -22 -19 -25
-28 -3 -8 -11 -23 -18 -32 -9 -13 -9 -22 -1 -40 6 -13 14 -32 18 -43 5 -17 12
-13 56 35 27 29 49 48 49 41 0 -13 -27 -58 -47 -79 -7 -7 -13 -17 -13 -22 0
-5 -2 -15 -5 -22 -4 -9 2 -14 15 -15 11 -1 18 2 16 6 -3 4 1 17 10 27 14 18
14 18 12 -6 -3 -25 -2 -25 75 -28 69 -3 77 -1 77 15 0 22 42 52 48 34 6 -19
32 -12 32 8 0 11 10 27 22 35 24 17 36 13 21 -6 -6 -7 -13 -30 -16 -51 l-6
-37 72 0 c85 0 104 8 88 38 -6 11 -24 31 -40 44 l-29 25 29 0 c15 0 30 -6 33
-14 3 -7 10 -13 16 -13 13 0 3 46 -16 77 -29 47 -6 45 38 -3 18 -20 48 -51 66
-69 17 -19 32 -38 32 -43 0 -5 11 -9 25 -9 14 0 25 2 25 6 0 3 -18 26 -41 49
-45 48 -46 72 -1 29 67 -65 36 0 -35 71 -24 24 -43 49 -43 54 0 6 10 0 23 -13
13 -13 32 -31 43 -40 10 -8 31 -31 46 -50 15 -18 27 -29 28 -22 0 6 -6 18 -12
25 -26 27 -89 130 -84 136 3 3 6 2 6 -3 0 -4 7 -2 15 5 12 10 16 9 21 -4 11
-29 23 -17 26 27 2 34 7 43 25 45 19 3 22 -2 25 -34 2 -28 9 -39 27 -46 24 -8
24 -8 7 11 -11 12 -14 21 -7 26 6 3 11 3 12 -2 3 -23 17 48 18 89 1 47 13 68
27 47 6 -10 6 -101 0 -223 0 -17 5 -31 13 -34 10 -3 13 2 9 22 -4 18 -1 26 8
26 8 0 14 5 14 11 0 5 5 7 10 4 6 -3 10 -19 10 -36 0 -28 7 -33 48 -32 7 1 12
-13 12 -36 0 -43 15 -70 29 -56 10 10 22 53 47 165 8 36 18 74 23 85 5 11 13
29 17 40 14 35 17 -32 4 -84 -8 -32 -8 -47 -1 -49 7 -2 8 -10 2 -21 -13 -23
30 -96 47 -79 9 9 12 3 11 -27 0 -32 -2 -36 -9 -20 -8 17 -9 16 -9 -9 -1 -20
3 -27 13 -23 7 3 26 -8 42 -24 19 -20 31 -26 38 -19 6 6 13 49 17 98 4 48 12
107 16 132 l9 45 7 -35 c3 -19 2 -53 -3 -75 -13 -55 -12 -65 6 -65 12 0 14 -7
9 -33 -4 -17 -11 -36 -16 -41 -5 -6 -9 -18 -9 -28 0 -17 12 -18 144 -18 l144
0 7 43 c4 23 11 47 16 53 13 16 -16 37 -44 32 -20 -4 -22 -1 -19 29 3 20 10
33 18 33 18 0 36 46 29 71 -4 12 -1 21 9 25 8 3 23 29 32 57 9 29 25 65 36 82
20 33 24 80 7 91 -6 3 -8 17 -4 31 5 21 3 24 -14 18 -11 -3 -22 -1 -26 5 -3 5
1 10 9 10 9 0 16 7 16 16 0 11 -5 14 -16 10 -9 -3 -27 -9 -40 -12 -21 -5 -24
-3 -22 17 2 17 -5 27 -25 37 -22 11 -25 16 -17 32 13 25 13 103 0 95 -6 -3
-10 -21 -10 -38 0 -24 -3 -28 -10 -17 -7 12 -10 8 -10 -15 l-1 -30 -13 30 c-8
19 -15 25 -20 17 -4 -6 -2 -21 4 -32 6 -11 8 -30 4 -42 -3 -12 -1 -24 6 -28 9
-6 9 -13 -2 -31 -7 -13 -14 -25 -14 -27 -1 -2 -47 20 -102 48 -55 27 -107 50
-115 50 -8 0 -45 -9 -82 -21 -75 -23 -97 -19 -39 7 22 9 32 18 24 20 -8 1 -32
5 -52 9 l-38 6 54 77 c52 74 73 90 88 67 4 -5 8 0 8 13 0 12 -4 22 -10 22 -5
0 -10 4 -10 10 0 5 6 9 13 7 7 -1 11 6 9 18 -2 16 -1 17 7 5 9 -12 11 -12 16
2 4 9 13 14 20 12 7 -3 16 -1 20 5 3 6 -1 11 -9 11 -25 0 -29 20 -12 53 24 49
101 235 124 302 52 155 122 486 122 583 0 34 0 34 38 27 20 -4 39 -11 40 -16
2 -5 14 -9 27 -9 14 0 25 -7 28 -18 2 -11 14 -21 26 -25 20 -5 21 -2 21 92 0
89 -2 98 -25 124 -28 29 -45 33 -62 16 -7 -7 -13 -7 -17 -1 -4 6 3 17 15 25
21 15 20 15 -15 32 -36 17 -47 39 -24 48 7 2 -4 14 -25 27 -20 12 -37 29 -37
37 0 8 4 12 9 8 5 -3 4 12 -4 32 -7 21 -18 74 -25 118 -23 157 -73 325 -159
534 -17 41 -29 75 -28 76 1 1 29 22 62 46 33 25 71 52 85 61 43 28 72 60 66
74 -6 15 4 17 92 15 95 -2 92 -9 92 214 0 193 0 195 -22 195 -12 0 -29 7 -38
15 -14 13 -20 12 -48 -5 -18 -11 -38 -32 -44 -46 -7 -14 -28 -42 -47 -61 -32
-32 -33 -35 -15 -47 10 -8 28 -15 38 -17 35 -7 28 -28 -18 -56 -26 -16 -49
-36 -52 -46 -3 -10 -17 -22 -30 -27 -17 -7 -23 -16 -21 -32 1 -13 5 -25 8 -28
4 -3 -5 -30 -20 -60 -22 -46 -34 -59 -80 -83 -29 -16 -54 -27 -56 -25 -2 2
-31 48 -64 102 -74 118 -144 211 -245 326 l-74 85 36 22 37 23 8 -25 c15 -43
74 -44 126 -4 31 24 47 24 54 -1 6 -22 2 -23 102 25 33 15 61 32 63 36 2 4 12
5 22 2 17 -4 18 -1 14 28 -5 29 0 40 29 73 33 36 34 37 30 12 -8 -39 28 -34
66 9 34 39 38 51 18 58 -20 7 8 32 91 82 64 39 79 44 101 36 14 -5 21 -10 14
-10 -7 -1 -10 -8 -7 -16 4 -8 1 -22 -6 -30 -15 -19 -6 -47 14 -39 12 4 15 32
15 145 l1 139 -438 0 c-482 0 -458 3 -477 -60 -13 -44 -46 -81 -86 -97 -40
-15 -89 -64 -89 -87 0 -19 -33 -46 -56 -46 -10 0 -39 14 -64 30 -78 53 -211
123 -335 176 -88 38 -119 56 -117 68 3 14 -22 16 -227 16 l-230 0 54 -51 c30
-28 53 -55 50 -59 -2 -4 5 -16 17 -26 12 -11 18 -13 14 -6 -11 18 -1 15 40
-13 20 -14 46 -25 56 -25 11 0 48 29 83 65 l63 65 88 -31 c98 -34 298 -130
384 -184 l55 -35 -42 0 c-23 0 -48 -6 -56 -14 -8 -8 -30 -21 -50 -30 -20 -8
-49 -26 -64 -40 -32 -30 -48 -33 -57 -11 -3 8 -2 15 3 15 4 0 12 10 18 23 11
26 18 117 8 117 -20 0 -106 -34 -116 -46 -6 -8 -18 -14 -25 -14 -8 0 -14 -4
-14 -9 0 -9 -48 -26 -62 -23 -15 4 -3 -20 28 -53 17 -18 55 -48 85 -66 50 -31
112 -89 104 -98 -5 -4 -123 70 -192 121 -29 21 -53 35 -52 31 0 -9 73 -63 141
-105 27 -17 47 -32 45 -35 -8 -7 -165 84 -260 152 -51 36 -114 82 -142 101
-68 49 -10 -2 85 -74 111 -85 174 -123 285 -176 260 -123 289 -140 350 -201
34 -33 74 -86 90 -117 37 -71 45 -69 10 4 l-26 53 55 -60 c71 -77 96 -140 96
-243 0 -42 -7 -104 -15 -137 -18 -77 -18 -91 2 -40 9 23 17 86 20 150 4 95 2
119 -17 175 -50 150 -163 263 -350 346 l-65 29 60 7 c38 5 64 13 70 24 24 39
86 93 119 104 20 6 42 20 49 31 13 18 17 16 78 -35 77 -64 96 -85 101 -111 2
-13 12 -21 30 -23 58 -7 299 -306 387 -480 l22 -42 -26 -28 c-14 -15 -25 -37
-25 -50 0 -13 -4 -32 -10 -42 -8 -15 -4 -20 23 -30 17 -7 43 -17 56 -23 19 -9
25 -8 36 6 7 9 15 17 18 17 9 0 63 -137 95 -243 26 -83 41 -148 77 -337 l5
-25 -19 23 c-11 12 -21 22 -24 22 -9 0 -14 -61 -5 -66 5 -4 7 -13 4 -21 -4 -9
-2 -21 3 -27 6 -8 3 -26 -10 -55 -10 -24 -19 -52 -19 -62 0 -10 -3 -19 -6 -19
-11 0 -63 58 -81 91 -30 52 -44 49 -37 -9 3 -28 1 -53 -4 -56 -5 -3 -7 -16 -5
-30 4 -18 0 -26 -16 -31 -22 -7 -41 0 -41 15 0 5 6 7 14 4 25 -10 7 32 -20 46
-25 14 -33 40 -12 40 6 0 3 9 -7 20 -17 19 -17 20 1 21 13 0 15 2 5 6 -8 3
-27 17 -43 31 -20 18 -25 29 -18 38 8 8 6 17 -5 28 -9 9 -13 20 -10 26 3 5 -5
15 -19 22 -15 6 -25 16 -24 22 3 10 -36 56 -47 56 -10 0 -4 -76 10 -130 7 -30
22 -90 33 -132 11 -43 26 -85 33 -95 11 -13 11 -15 1 -9 -11 7 -11 4 -1 -12 7
-12 19 -17 31 -14 14 3 18 -1 18 -22 0 -16 5 -26 15 -26 8 0 15 -4 15 -10 0
-5 8 -10 17 -10 24 0 83 -23 83 -32 0 -4 9 -8 20 -8 11 0 20 -4 20 -9 0 -5 12
-11 28 -15 15 -3 37 -8 50 -12 18 -5 22 -2 22 15 0 11 5 21 10 21 6 0 10 -9
10 -19 0 -11 9 -23 21 -26 20 -7 20 -11 14 -103 -9 -133 -46 -313 -95 -462
-42 -127 -136 -340 -152 -340 -4 0 -8 -7 -8 -15 0 -15 -70 -138 -123 -217 -29
-41 -35 -46 -62 -41 -16 3 -40 16 -52 30 -13 14 -23 19 -23 11 -1 -7 -16 5
-34 26 l-34 40 0 -120 c0 -159 -1 -178 -8 -171 -4 3 -8 66 -9 139 -2 163 -9
196 -52 275 -37 66 -37 103 -3 103 11 0 30 5 43 11 l25 11 -28 77 c-15 42 -40
121 -55 176 -15 55 -45 158 -66 228 l-40 129 -19 -22 c-11 -12 -22 -31 -25
-41 -8 -24 -17 -24 -32 0 -10 16 -10 28 2 62 8 23 15 53 15 68 1 14 7 37 15
51 19 32 19 51 0 26 -14 -19 -15 -19 -20 0 -27 84 -81 131 -163 141 -33 4 -52
11 -52 19 0 27 20 64 57 104 20 23 38 48 39 56 2 15 63 114 70 114 8 0 -31
-76 -50 -98 -11 -12 -14 -22 -8 -22 25 0 52 42 73 112 34 115 72 190 113 226
21 18 37 35 35 36 -18 15 -74 36 -98 36 -41 0 -49 18 -10 22 l31 3 -30 41
c-17 23 -55 55 -86 73 -31 17 -56 36 -56 42 0 5 5 7 10 4 20 -12 9 8 -35 66
-50 65 -46 77 9 25 35 -33 36 -33 30 -7 -20 82 -146 235 -227 276 l-52 26 38
-5 38 -5 -20 27 c-10 15 -51 62 -90 105 -39 42 -71 79 -71 82 0 12 253 -201
294 -247 64 -72 138 -222 140 -282 0 -25 4 -46 9 -46 4 0 7 -11 7 -24 0 -17 7
-27 23 -32 12 -4 25 -12 29 -18 5 -7 8 -4 8 7 0 10 11 39 24 65 13 26 26 58
30 72 3 14 -5 0 -20 -30 l-26 -55 -14 30 -14 30 4 -42 c2 -24 1 -45 -4 -48
-14 -9 -27 19 -39 85 -7 36 -33 107 -58 159 -37 77 -59 109 -123 172 -43 43
-73 80 -67 82 6 2 3 6 -7 10 -11 5 -15 3 -10 -5 5 -7 3 -8 -5 -3 -9 5 -10 10
-2 18 8 8 1 22 -26 52 -21 23 8 -5 64 -62 118 -120 179 -200 229 -304 38 -80
37 -57 -1 28 -41 91 -114 181 -294 362 -96 97 -161 161 -146 144 16 -18 26
-35 24 -38 -7 -6 -314 304 -449 455 -61 69 -148 165 -192 213 l-80 88 -412 -4
c-226 -1 -422 -7 -435 -12 -17 -6 -22 -5 -17 3 5 9 -9 12 -51 11 -62 -1 -62
-3 2 -14 l40 -7 -84 -34 c-99 -40 -104 -41 -96 -14 5 16 2 20 -14 20 -33 0
-25 16 17 33 34 14 -49 15 -925 16 l-963 1 0 -169z m2207 115 c-11 -16 -15
-26 -7 -21 10 6 11 4 4 -6 -13 -21 -5 -49 21 -77 13 -14 21 -32 17 -40 -4 -11
0 -14 16 -10 16 5 19 2 15 -11 -3 -9 -11 -22 -16 -29 -6 -8 -11 -22 -12 -33
-1 -11 -11 -30 -23 -42 -12 -13 -20 -26 -17 -29 12 -12 -17 -98 -34 -99 -14
-1 -13 -2 2 -6 9 -2 17 -9 17 -14 0 -5 -4 -8 -9 -7 -14 4 -15 -3 -7 -62 5 -39
10 -50 16 -40 8 13 10 13 11 0 1 -8 1 -19 0 -24 -1 -5 5 -4 13 3 9 7 14 17 11
21 -3 5 -1 11 4 14 5 4 16 -13 24 -36 31 -85 57 -172 53 -175 -2 -2 -13 19
-25 48 -26 60 -41 59 -17 -1 20 -50 20 -56 1 -64 -30 -11 -85 149 -121 347 -4
22 -10 34 -14 27 -8 -13 1 -79 29 -205 11 -49 28 -126 37 -170 9 -44 22 -95
30 -114 8 -19 12 -36 10 -39 -5 -4 -19 25 -61 121 -19 43 -30 49 -20 10 4 -16
8 -32 10 -38 1 -5 7 -23 13 -38 7 -16 12 -30 12 -33 0 -2 14 -29 31 -60 23
-40 34 -52 40 -42 6 9 9 5 9 -14 0 -15 5 -30 10 -33 19 -12 11 -26 -8 -16 -10
6 -28 7 -40 4 -17 -4 -32 6 -67 43 l-46 49 21 -48 c31 -74 26 -94 -14 -59 -18
15 -19 15 -8 0 11 -14 10 -23 -6 -53 l-18 -37 -49 54 c-26 29 -43 43 -37 31
23 -43 32 -73 22 -73 -13 0 -28 39 -33 83 -2 18 -9 42 -16 53 -17 29 -3 -47
21 -113 16 -43 17 -56 7 -75 l-12 -23 22 19 c12 11 19 26 16 33 -2 8 -1 12 4
9 10 -6 8 -73 -4 -98 -10 -25 -25 -22 -25 4 0 16 -3 19 -11 11 -8 -8 -8 -17 1
-33 9 -16 9 -25 1 -33 -6 -6 -11 -19 -11 -29 0 -10 -10 -28 -22 -40 -12 -12
-23 -29 -24 -36 -5 -28 -14 -42 -29 -42 -8 0 -15 -1 -15 -2 0 -2 -11 -33 -24
-70 -13 -37 -19 -69 -14 -70 6 -2 -29 -32 -76 -67 -47 -35 -84 -66 -81 -69 9
-9 -65 -53 -78 -46 -6 4 -9 3 -4 -1 4 -5 -3 -20 -15 -33 -16 -17 -9 -14 23 10
25 19 94 61 152 93 131 71 252 167 325 257 31 37 57 66 59 64 12 -12 -112
-195 -162 -239 -20 -17 -20 -17 0 -10 16 6 13 -2 -14 -35 -57 -73 -186 -184
-303 -262 -62 -41 -111 -78 -110 -83 1 -4 -4 -20 -11 -35 -7 -15 -12 -39 -11
-54 3 -25 -2 -29 -48 -43 -28 -8 -53 -13 -55 -11 -2 2 -4 25 -5 52 0 40 -2 45
-9 26 -5 -13 -6 -41 -3 -63 6 -35 9 -39 28 -33 11 4 62 19 111 34 50 15 99 31
110 35 16 5 15 3 -5 -14 -14 -11 -28 -21 -31 -21 -4 0 -38 -18 -75 -40 -77
-45 -91 -48 -110 -22 -13 16 -14 16 -8 0 3 -10 2 -18 -3 -18 -17 0 -52 45 -66
85 -14 39 -14 39 -26 17 -7 -13 -10 -28 -7 -35 2 -7 5 -4 5 6 1 17 21 25 21 8
0 -5 3 -16 6 -24 3 -10 -2 -17 -13 -20 -12 -3 -9 -5 10 -6 15 0 27 -6 27 -11
0 -6 11 -16 25 -22 14 -6 25 -14 25 -17 0 -3 -30 -21 -67 -39 -51 -24 -69 -29
-75 -20 -4 7 -8 -16 -8 -54 0 -70 9 -88 30 -63 11 13 10 14 -6 8 -35 -13 4 24
75 70 88 59 183 105 200 99 8 -3 11 0 7 7 -5 7 -1 9 9 4 13 -5 14 -7 3 -14 -7
-5 -18 -9 -25 -9 -16 0 -184 -97 -203 -117 -9 -9 -2 -8 15 4 89 60 232 120
390 163 44 12 109 35 145 51 l65 29 -30 -25 c-40 -34 -123 -76 -246 -126 -103
-40 -161 -68 -146 -69 4 0 35 11 68 25 34 13 65 22 70 19 5 -3 9 -1 9 4 0 5 7
9 15 9 12 0 12 -3 2 -16 -9 -12 -9 -13 1 -7 6 4 17 4 23 1 15 -10 -30 -55 -56
-55 -51 0 -79 -50 -75 -133 1 -28 -5 -46 -22 -65 -18 -21 -19 -23 -2 -9 11 9
24 17 27 17 4 0 7 -207 7 -459 l0 -460 25 -19 c24 -19 26 -19 97 -2 122 30
181 48 231 69 l48 21 59 -62 c33 -34 62 -59 65 -56 3 3 -10 29 -30 59 -19 29
-35 49 -35 43 0 -5 7 -20 16 -32 9 -13 14 -26 11 -29 -6 -5 -67 75 -67 89 0
10 27 11 33 1 2 -5 2 -2 0 6 -2 8 13 29 33 48 32 29 39 32 53 19 9 -7 26 -19
39 -25 21 -11 22 -11 10 8 -6 11 -15 18 -19 16 -13 -8 -42 22 -34 35 6 10 11
9 23 -6 13 -18 14 -18 7 5 -5 17 3 45 29 101 22 46 46 123 60 189 14 62 27
115 29 118 3 3 5 -37 5 -89 -1 -158 23 -256 72 -303 25 -24 41 -30 90 -33 53
-4 69 0 123 26 73 36 137 48 137 26 0 -8 -7 -14 -16 -14 -9 0 -34 -18 -56 -41
-38 -39 -40 -45 -40 -101 0 -75 20 -102 68 -93 18 3 35 1 39 -5 4 -7 12 -7 25
0 10 5 25 7 34 4 14 -5 54 -9 129 -13 17 -1 27 -7 27 -16 0 -30 -53 -120 -95
-161 l-44 -42 -23 25 c-32 35 -135 111 -181 135 -40 20 -58 24 -165 35 -61 6
-64 5 -118 -32 -72 -50 -76 -59 -23 -50 63 10 47 1 -60 -35 -52 -17 -124 -46
-160 -64 -37 -18 -129 -55 -206 -81 -129 -44 -182 -66 -127 -52 12 3 22 2 22
-3 0 -4 8 -7 18 -6 12 1 18 -8 20 -29 3 -24 1 -28 -9 -17 -21 20 -32 14 -27
-18 3 -16 0 -30 -4 -30 -5 0 -8 -18 -7 -39 2 -21 -3 -46 -10 -55 -12 -14 -16
-14 -42 -1 -34 18 -42 44 -37 120 1 30 0 55 -4 55 -12 0 -20 -60 -13 -101 6
-33 4 -40 -6 -37 -9 3 -16 26 -20 59 l-6 54 -1 -47 c-1 -27 -4 -48 -7 -48 -16
0 -84 54 -78 63 3 5 2 7 -4 4 -24 -15 -180 108 -338 267 -143 144 -191 202
-173 209 8 3 6 6 -5 6 -21 1 -88 91 -164 219 -50 86 -78 141 -133 267 -16 38
-85 241 -95 281 -38 153 -46 200 -35 218 6 10 7 15 2 12 -15 -9 -21 17 -33
147 -27 292 25 681 128 957 68 183 203 428 301 548 20 25 54 52 79 63 26 11
47 28 53 43 10 28 61 43 94 28 47 -22 126 -34 141 -22 20 17 133 2 156 -21 11
-11 28 -19 40 -19 41 0 12 -25 -56 -48 -64 -21 -74 -22 -164 -11 -91 10 -99
10 -145 -11 l-50 -23 38 -34 38 -35 92 7 c82 6 94 5 100 -10 3 -10 -2 -28 -14
-45 -11 -15 -20 -38 -20 -50 0 -12 -4 -18 -10 -15 -6 4 -8 10 -5 15 3 4 -4 6
-15 3 -19 -5 -20 -7 -5 -23 13 -15 21 -16 45 -7 16 6 27 15 24 19 -3 4 0 8 6
8 7 0 9 8 4 22 -6 19 -5 21 8 11 8 -7 18 -10 21 -7 3 4 24 6 47 6 40 -1 54 13
25 24 -8 4 -15 10 -15 15 0 20 46 79 61 79 29 0 52 36 46 74 -5 29 -1 38 29
67 32 31 46 69 25 69 -5 0 -16 16 -26 36 -12 25 -29 41 -58 53 -48 21 -137 96
-137 116 0 25 160 125 201 125 10 0 61 21 115 46 94 45 154 90 154 118 0 7
-12 17 -27 22 -26 9 -21 13 82 54 136 54 184 69 212 67 l21 -1 -21 -30z m264
-253 c13 -16 12 -17 -3 -4 -10 7 -18 15 -18 17 0 8 8 3 21 -13z m227 -47 c28
-22 52 -43 52 -46 0 -3 -15 -10 -33 -15 l-33 -11 -29 62 c-33 68 -33 68 43 10z
m1567 13 c8 -23 33 -24 63 -3 12 8 22 11 22 6 0 -11 60 -10 78 2 27 17 76 25
88 16 7 -7 20 -7 37 -1 50 19 50 -20 1 -69 -19 -19 -37 -46 -40 -60 -9 -41
-20 -55 -48 -58 -21 -3 -26 1 -26 17 0 18 -5 20 -41 16 -22 -2 -51 -10 -63
-19 -22 -14 -26 -12 -83 38 -32 28 -74 63 -91 77 l-33 25 37 0 c27 0 41 6 51
21 16 25 39 21 48 -8z m-1764 -36 c13 -16 12 -17 -3 -4 -10 7 -18 15 -18 17 0
8 8 3 21 -13z m30 -97 c21 -38 21 -39 1 -58 -19 -19 -19 -19 -26 35 -3 31 -9
64 -12 74 -5 15 -4 16 5 3 7 -8 21 -32 32 -54z m277 21 c23 -23 42 -46 42 -49
0 -3 -19 -9 -42 -13 -24 -4 -56 -14 -71 -22 -16 -8 -30 -13 -32 -11 -1 2 -6
27 -10 56 -7 52 -7 52 27 67 18 8 35 14 38 15 3 0 25 -19 48 -43z m-263 22
c-4 -5 1 -19 11 -30 9 -10 15 -21 12 -24 -8 -9 -40 44 -33 55 3 6 8 10 11 10
3 0 2 -5 -1 -11z m-41 -184 c5 -44 4 -46 -4 -14 -5 20 -18 59 -30 88 -23 60
-26 77 -5 41 13 -24 13 -23 10 20 -3 36 -1 31 10 -20 7 -36 16 -87 19 -115z
m177 105 c13 -42 13 -52 2 -61 -10 -9 -13 -6 -13 17 0 16 -4 44 -9 62 -16 53
4 36 20 -18z m-240 -42 c4 -29 18 -88 30 -130 l21 -76 -38 -47 -39 -46 -23 28
c-23 28 -114 208 -127 252 -4 15 -3 21 3 17 5 -3 12 4 15 15 4 17 11 20 28 16
12 -3 38 1 57 8 19 8 39 12 45 8 7 -4 8 0 3 13 -6 15 -4 16 5 7 6 -6 15 -36
20 -65z m200 33 c1 8 5 -2 9 -21 5 -21 5 -39 -1 -45 -7 -7 -8 -4 -3 8 4 12 2
17 -6 15 -7 -2 -18 15 -26 37 l-14 40 20 -24 c13 -15 20 -18 21 -10z m-32 -76
c-1 -29 -2 -28 -14 10 -19 55 -18 90 0 50 8 -16 14 -43 14 -60z m-28 -2 c7
-32 14 -60 16 -62 2 -3 17 11 34 30 27 30 31 24 6 -9 -6 -8 -12 -30 -14 -51
-3 -28 1 -42 17 -56 20 -18 20 -18 20 26 0 24 5 51 10 59 8 13 10 12 10 -4 0
-14 5 -17 24 -12 30 7 40 -3 21 -24 -13 -15 -11 -19 25 -39 l41 -23 35 27 c20
15 38 34 41 42 8 21 -15 93 -33 100 -8 3 -14 11 -14 19 0 8 -5 14 -12 14 -6 0
-9 3 -5 6 14 14 69 -9 78 -33 5 -13 13 -22 18 -19 9 6 55 -110 85 -215 24 -84
46 -245 46 -344 0 -116 -19 -157 -76 -167 -107 -19 -349 -1 -410 30 -22 11
-68 48 -104 82 -36 34 -82 74 -102 88 -45 29 -50 47 -11 37 l28 -7 -28 26
c-19 18 -27 35 -27 60 0 43 13 53 28 21 8 -17 16 -22 33 -18 18 5 20 3 14 -16
-5 -18 -1 -24 29 -36 46 -19 65 -19 88 2 22 20 23 54 3 93 -9 17 -12 30 -8 30
5 1 -5 8 -20 16 -16 8 -25 20 -21 26 5 8 -5 9 -35 4 -46 -7 -114 -45 -129 -72
-9 -15 -11 -15 -22 6 -17 33 -40 121 -34 132 10 15 20 8 57 -42 21 -28 43 -48
48 -44 6 4 2 12 -9 20 -11 8 -30 30 -43 50 -18 30 -19 38 -8 45 17 10 19 7 50
-51 13 -25 25 -47 26 -49 1 -2 9 2 18 9 11 9 12 17 4 31 -5 11 -14 17 -19 14
-5 -3 -14 5 -20 17 -11 22 -10 22 4 4 21 -26 20 -17 -4 39 -29 68 -24 78 10
20 16 -27 40 -62 52 -78 l23 -27 46 53 47 53 -24 90 c-13 49 -22 93 -21 99 2
5 14 -29 26 -75 32 -120 45 -126 37 -16 -5 75 -4 92 10 108 10 10 21 18 25 18
4 0 13 -26 20 -57z m1359 -59 c0 -2 -9 0 -20 6 -11 6 -20 13 -20 16 0 2 9 0
20 -6 11 -6 20 -13 20 -16z m-1090 -35 c0 -5 -11 -16 -26 -25 -20 -13 -28 -14
-37 -5 -9 10 -7 17 11 31 22 18 52 18 52 -1z m1171 -22 c3 -5 9 -8 13 -8 3 1
6 -2 7 -6 0 -5 5 -14 11 -20 24 -30 -1 -10 -37 29 -22 23 -31 36 -20 28 11 -8
23 -19 26 -23z m-1791 -85 c0 -7 -4 -10 -10 -7 -5 3 -10 16 -10 28 0 18 2 19
10 7 5 -8 10 -21 10 -28z m24 -212 c-6 -5 -24 21 -24 34 0 6 6 1 14 -10 8 -10
12 -21 10 -24z m234 -17 c-2 -22 -9 -29 -30 -31 -32 -4 -38 17 -12 42 25 26
46 20 42 -11z m2295 -192 c3 -14 1 -18 -9 -14 -8 3 -14 14 -14 25 0 23 16 16
23 -11z m-2306 -163 c7 -6 26 -7 42 -3 21 4 38 1 53 -9 12 -9 33 -16 45 -16
32 0 29 -18 -4 -26 -16 -4 -38 -1 -57 9 -53 28 -60 26 -66 -18 -3 -26 0 -45 9
-54 11 -12 11 -17 -3 -27 -10 -7 -12 -14 -7 -15 13 -5 -1 -65 -14 -62 -5 1
-15 26 -22 54 -18 72 -28 82 -77 77 -23 -3 -49 -8 -58 -12 -12 -5 -18 -4 -18
4 0 20 70 121 80 115 5 -3 11 -1 15 4 6 10 60 -4 82 -21z m-197 -98 c0 -5 -1
-13 -2 -16 -2 -3 8 -12 22 -20 l25 -15 -28 6 c-19 4 -26 2 -22 -5 3 -6 -3 -25
-14 -44 -25 -39 -40 -126 -22 -126 6 0 11 8 11 18 0 9 11 35 25 57 13 22 34
59 47 83 12 23 28 42 35 42 20 0 16 -59 -8 -110 -35 -76 -49 -132 -48 -195 l1
-60 10 45 c24 116 26 119 83 155 30 19 57 35 60 35 3 0 5 -11 5 -24 0 -17 -12
-34 -35 -51 -38 -30 -41 -36 -50 -117 -6 -52 -4 -58 12 -58 14 0 15 -2 4 -9
-11 -7 -8 -9 10 -10 190 -7 282 -40 295 -107 8 -43 -7 -62 -57 -74 l-34 -8 32
-1 c17 -1 35 4 38 9 3 6 11 10 18 10 21 0 -17 -26 -70 -48 -74 -31 -83 -30
-83 17 l0 40 -83 25 c-96 29 -159 76 -188 140 -13 29 -17 33 -13 14 4 -16 4
-28 2 -28 -3 0 -22 25 -43 55 -20 30 -39 55 -42 55 -6 0 5 -19 35 -59 l25 -34
-32 19 c-33 19 -53 53 -50 83 1 9 -1 23 -4 31 -13 35 -14 89 -1 139 18 68 22
75 39 61 11 -9 21 -1 47 39 32 49 48 62 48 41z m845 -111 c16 -100 16 -108 0
-139 -21 -40 -30 -32 -49 45 -23 85 -21 146 5 179 12 15 22 26 24 24 1 -2 10
-51 20 -109z m-78 -51 c-3 -7 -5 -2 -5 12 0 14 2 19 5 13 2 -7 2 -19 0 -25z
m-1147 -8 c-10 -19 -178 -125 -186 -117 -5 5 154 107 166 107 4 0 10 7 14 15
3 8 8 15 11 15 3 0 1 -9 -5 -20z m1454 -305 c26 -100 54 -175 86 -226 43 -70
27 -60 -20 12 -71 110 -131 301 -143 454 -3 28 -2 40 0 28 7 -36 23 -27 24 15
1 20 9 -21 19 -93 10 -71 25 -157 34 -190z m-291 250 c5 -28 4 -34 -3 -20 -8
19 -14 73 -6 64 2 -2 6 -22 9 -44z m222 -195 c6 -20 1 -17 -25 15 -34 43 -73
114 -84 155 -7 25 -7 25 6 3 16 -27 42 -16 31 13 -6 17 -5 18 11 5 9 -8 16
-10 15 -5 -1 5 0 20 1 34 1 14 10 -24 20 -85 9 -60 20 -121 25 -135z m-223
118 c22 -62 22 -73 2 -36 -9 17 -20 25 -29 22 -17 -7 -18 -1 -9 45 8 39 12 35
36 -31z m116 -105 c22 -18 61 -42 86 -55 56 -27 60 -41 9 -32 -88 16 -135 54
-174 142 -39 86 -37 98 5 31 19 -30 53 -69 74 -86z m259 -84 c18 -19 30 -39
26 -44 -5 -4 -2 -5 5 -1 8 5 22 0 35 -11 12 -11 52 -39 90 -63 37 -24 67 -45
67 -47 0 -8 -26 4 -44 19 -13 12 -30 16 -53 13 -20 -2 -33 0 -33 7 0 6 -3 8
-7 4 -5 -4 1 -14 11 -22 19 -14 19 -14 -2 -14 -12 0 -22 5 -22 12 0 6 -3 9 -6
5 -4 -3 13 -30 37 -59 36 -44 37 -48 10 -23 -18 17 -42 43 -53 59 -17 23 -19
30 -7 38 11 8 11 9 -3 5 -21 -7 -26 -1 -81 103 -52 99 -76 176 -31 100 15 -25
42 -61 61 -81z m1673 -175 c0 -17 -22 -14 -28 4 -2 7 3 12 12 12 9 0 16 -7 16
-16z m-1415 -14 c10 -11 16 -20 13 -20 -3 0 -13 9 -23 20 -10 11 -16 20 -13
20 3 0 13 -9 23 -20z m-2095 -73 c0 -7 -40 -35 -88 -64 -48 -28 -109 -67 -135
-87 -26 -20 -50 -36 -53 -36 -3 0 -4 12 -2 28 2 22 15 34 73 64 39 21 78 38
87 38 9 0 18 4 20 10 2 5 23 20 48 33 25 14 46 25 48 26 1 0 2 -5 2 -12z
m2436 -61 c30 -30 34 -40 34 -89 0 -63 -12 -102 -42 -134 l-20 -21 21 -7 c83
-26 91 -191 13 -277 -19 -21 -47 -45 -62 -53 -22 -11 -176 -55 -194 -55 -3 0
-6 148 -6 329 l0 330 43 4 c23 2 73 4 111 5 65 2 69 1 102 -32z m-1622 -46
l18 -45 -21 22 c-12 12 -21 34 -21 49 0 33 2 31 24 -26z m1224 -292 l-3 -342
-29 -7 -28 -8 -98 203 c-54 111 -110 231 -125 267 -15 35 -29 66 -30 67 -2 2
-1 -131 2 -296 4 -174 2 -301 -3 -304 -5 -3 -21 -8 -36 -12 l-28 -6 0 375 0
375 38 0 37 0 90 -193 c49 -105 103 -225 121 -265 17 -40 33 -75 35 -77 2 -2
2 125 0 281 l-3 284 31 0 31 0 -2 -342z m-1808 308 c0 -2 -8 -10 -17 -17 -16
-13 -17 -12 -4 4 13 16 21 21 21 13z m1310 -40 c0 -14 -14 -55 -32 -93 -174
-377 -288 -628 -286 -633 3 -5 99 16 296 65 22 5 23 3 20 -37 l-3 -42 -180
-48 c-254 -68 -245 -67 -245 -31 0 17 19 70 41 119 47 102 62 134 193 418 53
115 94 211 92 213 -2 3 -62 -3 -133 -11 -175 -22 -163 -24 -163 28 l0 43 148
15 c81 8 171 16 200 16 49 2 52 1 52 -22z m-1304 -6 c0 -11 -5 -20 -11 -20 -5
0 -21 -3 -35 -6 -22 -6 -21 -4 9 20 19 14 35 26 36 26 0 0 1 -9 1 -20z m49
-10 c-3 -5 -12 -10 -18 -10 -7 0 -6 4 3 10 19 12 23 12 15 0z m502 -12 c-3 -8
-6 -5 -6 6 -1 11 2 17 5 13 3 -3 4 -12 1 -19z m-292 -7 c-3 -6 -11 -8 -17 -5
-6 4 -5 9 3 15 16 10 23 4 14 -10z m405 -132 l0 -90 70 7 70 7 0 -41 c0 -44 0
-44 -93 -58 l-49 -7 4 -211 c2 -116 8 -219 12 -229 12 -26 55 -33 90 -13 34
19 46 10 46 -36 0 -22 -8 -32 -37 -46 -85 -42 -140 -35 -171 22 -14 26 -17 68
-20 265 l-3 233 -40 -5 -39 -5 0 44 c0 43 1 44 39 50 37 6 39 8 45 51 3 25 6
67 6 94 0 44 2 48 28 52 15 2 30 5 35 6 4 0 7 -40 7 -90z m-453 66 c148 -44
223 -209 210 -460 -10 -176 -48 -281 -139 -380 -59 -65 -134 -104 -265 -139
-50 -13 -101 -27 -112 -31 l-21 -6 0 504 0 505 88 7 c48 3 92 8 97 10 25 9 96
4 142 -10z m303 -36 c-8 -15 -9 -19 -1 -15 7 5 11 -4 11 -23 0 -26 -7 -34 -39
-51 -39 -20 -40 -20 -46 0 -4 13 5 35 27 66 18 26 38 53 43 60 15 22 19 -9 5
-37z m1661 -471 c-5 -18 -18 -78 -27 -133 -20 -119 -29 -145 -49 -145 -38 0
-63 112 -48 219 l8 54 53 17 c29 10 56 20 59 24 13 12 15 -4 4 -36z m-941
-372 c0 -5 -7 -1 -15 10 -8 10 -14 24 -14 29 0 6 6 1 14 -9 8 -11 15 -24 15
-30z m338 -68 c-15 -9 -24 43 -12 70 5 12 9 6 16 -22 6 -29 5 -42 -4 -48z m82
-50 c0 -5 -4 -8 -10 -8 -5 0 -10 10 -10 23 0 18 2 19 10 7 5 -8 10 -18 10 -22z
m50 -34 c0 -8 -4 -12 -10 -9 -5 3 -10 10 -10 16 0 5 5 9 10 9 6 0 10 -7 10
-16z m664 0 c3 -8 2 -12 -4 -9 -6 3 -10 10 -10 16 0 14 7 11 14 -7z m-624 -44
c0 -5 -2 -10 -4 -10 -3 0 -8 5 -11 10 -3 6 -1 10 4 10 6 0 11 -4 11 -10z
m1276 -100 c-4 -77 -1 -96 17 -132 21 -40 25 -43 65 -44 23 0 48 -7 55 -14 9
-10 9 -11 -1 -6 -16 10 -62 -38 -62 -64 0 -10 -6 -20 -12 -22 -12 -4 -7 -24
40 -155 2 -7 -1 -13 -7 -13 -6 0 -11 4 -11 9 0 20 -46 111 -55 111 -6 0 -16
-14 -23 -32 -6 -17 -15 -29 -18 -25 -4 4 4 27 17 51 22 42 22 46 6 64 -9 10
-17 28 -17 40 0 13 -6 22 -15 22 -10 0 -15 10 -15 30 0 16 -8 37 -19 47 -11
10 -20 36 -23 60 -4 44 7 47 23 5 6 -16 13 -22 20 -15 9 9 -1 53 -24 100 -5
13 -8 26 -4 29 3 4 12 -5 18 -19 15 -34 26 -27 34 23 4 22 8 40 10 40 3 0 3
-40 1 -90z m-756 20 c6 -11 7 -20 2 -20 -6 0 -12 9 -15 20 -3 11 -3 20 -1 20
2 0 8 -9 14 -20z m530 10 c0 -5 -2 -10 -4 -10 -3 0 -8 5 -11 10 -3 6 -1 10 4
10 6 0 11 -4 11 -10z m504 -32 c-4 -13 -13 -45 -19 -72 -10 -45 -35 -76 -35
-44 0 22 44 138 53 138 5 0 5 -10 1 -22z m-434 -19 c0 -6 -4 -7 -10 -4 -5 3
-10 11 -10 16 0 6 5 7 10 4 6 -3 10 -11 10 -16z m302 3 c4 -15 1 -18 -19 -14
-22 4 -22 5 -6 18 10 7 19 14 19 14 1 0 4 -8 6 -18z m-1152 -13 c0 -6 -4 -7
-10 -4 -5 3 -10 11 -10 16 0 6 5 7 10 4 6 -3 10 -11 10 -16z m387 -31 c21 -62
24 -78 15 -78 -9 0 -42 76 -42 98 0 24 16 12 27 -20z m-180 -18 c3 -11 10 -20
17 -20 6 0 19 -14 28 -30 21 -37 7 -39 -25 -4 l-24 26 -7 -29 c-6 -21 -3 -30
10 -38 28 -16 64 -53 64 -66 0 -8 -4 -8 -15 1 -20 16 -33 5 -28 -24 4 -17 -1
-27 -16 -35 -22 -12 -26 -7 -21 34 1 11 0 18 -3 15 -3 -3 -5 -8 -4 -12 1 -3
-10 -16 -25 -28 -17 -13 -28 -31 -28 -45 0 -21 -35 -54 -45 -43 -4 4 11 37 34
73 23 36 28 97 7 89 -8 -3 -16 3 -19 15 -4 18 -1 19 26 14 29 -6 30 -5 23 21
-4 17 -3 25 3 22 15 -10 34 32 27 60 -4 15 -2 24 5 24 6 0 13 -9 16 -20z
m-1290 -57 c-2 -16 -4 -5 -4 22 0 28 2 40 4 28 2 -13 2 -35 0 -50z m1173 46
c0 -6 -4 -7 -10 -4 -5 3 -10 11 -10 16 0 6 5 7 10 4 6 -3 10 -11 10 -16z
m-360 -48 c-6 -12 -15 -21 -21 -21 -6 0 -2 14 8 30 19 33 31 24 13 -9z m613
-21 c3 -11 1 -20 -4 -20 -5 0 -9 4 -9 9 0 5 -3 17 -7 27 -4 11 -3 15 4 11 6
-4 13 -16 16 -27z m-696 -2 c-3 -8 -6 -5 -6 6 -1 11 2 17 5 13 3 -3 4 -12 1
-19z m46 -28 c-3 -11 -7 -20 -9 -20 -2 0 -4 9 -4 20 0 11 4 20 9 20 5 0 7 -9
4 -20z m1557 -1 c0 -5 -4 -9 -10 -9 -5 0 -10 7 -10 16 0 8 5 12 10 9 6 -3 10
-10 10 -16z m-940 -4 c8 -10 10 -19 4 -25 -5 -5 -14 1 -21 16 -12 27 -2 32 17
9z m360 -40 c0 -8 4 -15 8 -17 5 -1 11 -19 15 -39 5 -33 3 -36 -14 -32 -15 4
-19 13 -18 37 1 17 -4 44 -10 60 -10 26 -10 28 4 16 8 -7 15 -18 15 -25z m182
-70 c-6 -34 -12 -32 -12 6 0 16 4 28 9 25 4 -3 6 -17 3 -31z m-931 -46 c22
-23 38 -43 37 -45 -5 -5 -88 67 -88 77 0 16 11 10 51 -32z m-501 -40 c0 -6 -4
-7 -10 -4 -5 3 -10 11 -10 16 0 6 5 7 10 4 6 -3 10 -11 10 -16z m735 -9 c3 -5
1 -10 -4 -10 -6 0 -11 5 -11 10 0 6 2 10 4 10 3 0 8 -4 11 -10z m-1784 -53
l20 -42 -25 29 c-13 16 -27 38 -29 48 -8 30 12 9 34 -35z m1617 24 c3 -8 -1
-12 -9 -9 -7 2 -15 10 -17 17 -3 8 1 12 9 9 7 -2 15 -10 17 -17z m-2128 -56
c0 -7 -5 -17 -11 -21 -13 -8 -29 13 -29 39 0 15 3 16 20 7 11 -6 20 -17 20
-25z"/>
<path d="M1733 3707 c-51 -19 -51 -28 0 -11 26 9 47 18 47 20 0 6 -12 4 -47
-9z"/>
<path d="M1690 3576 c0 -2 8 -10 18 -17 15 -13 16 -12 3 4 -13 16 -21 21 -21
13z"/>
<path d="M1960 3563 c0 -6 11 -53 24 -104 24 -96 70 -208 100 -244 11 -13 8
-2 -7 30 -40 83 -66 156 -86 238 -18 72 -31 106 -31 80z"/>
<path d="M1897 3371 c-10 -47 -7 -252 3 -276 6 -14 9 -2 11 45 l2 65 8 -60 c4
-38 5 -11 3 71 -3 72 -8 144 -13 160 l-7 29 -7 -34z"/>
<path d="M1102 3261 c-11 -6 -10 -10 1 -19 10 -9 17 -7 30 8 16 19 16 20 -1
20 -9 0 -23 -4 -30 -9z"/>
<path d="M1806 3125 c-9 -26 -7 -32 5 -12 6 10 9 21 6 23 -2 3 -7 -2 -11 -11z"/>
<path d="M2076 3127 c3 -10 9 -15 12 -12 3 3 0 11 -7 18 -10 9 -11 8 -5 -6z"/>
<path d="M1880 3045 c0 -5 5 -17 10 -25 5 -8 10 -10 10 -5 0 6 -5 17 -10 25
-5 8 -10 11 -10 5z"/>
<path d="M1875 2955 c-3 -26 -4 -49 -2 -52 3 -3 9 16 12 42 4 25 5 48 2 51 -2
3 -8 -16 -12 -41z"/>
<path d="M1920 2974 c0 -5 7 -19 15 -30 8 -10 15 -14 15 -8 0 5 -7 19 -15 30
-8 10 -15 14 -15 8z"/>
<path d="M1861 2874 c0 -11 3 -14 6 -6 3 7 2 16 -1 19 -3 4 -6 -2 -5 -13z"/>
<path d="M1871 2823 c-10 -26 -10 -27 4 -9 8 11 15 23 15 28 0 15 -7 8 -19
-19z"/>
<path d="M1812 2747 l-23 -42 27 26 c14 15 24 34 22 43 -2 10 -11 1 -26 -27z"/>
<path d="M1839 2691 c-20 -14 -45 -31 -55 -38 -18 -12 -18 -12 1 -6 22 8 25
12 -40 -72 -21 -27 -55 -68 -74 -90 -29 -32 -30 -35 -7 -15 16 14 55 59 88
100 72 92 67 87 103 115 42 33 28 38 -16 6z"/>
<path d="M1729 2673 c-13 -16 -12 -17 4 -4 16 13 21 21 13 21 -2 0 -10 -8 -17
-17z"/>
<path d="M1680 2600 c-9 -6 -10 -10 -3 -10 6 0 15 5 18 10 8 12 4 12 -15 0z"/>
<path d="M1910 2408 c-26 -24 -32 -32 -15 -20 28 18 73 63 64 62 -2 -1 -24
-19 -49 -42z"/>
<path d="M1519 2333 l-34 -38 38 34 c34 33 42 41 34 41 -2 0 -19 -17 -38 -37z"/>
<path d="M1812 2336 c-46 -33 -53 -43 -14 -20 19 10 38 25 44 32 15 17 8 14
-30 -12z"/>
<path d="M1734 2284 c-18 -14 -18 -15 4 -4 12 6 22 13 22 15 0 8 -5 6 -26 -11z"/>
<path d="M1439 2263 l-24 -28 28 24 c25 23 32 31 24 31 -2 0 -14 -12 -28 -27z"/>
<path d="M1555 2270 c-10 -11 -13 -20 -8 -20 13 0 38 29 31 35 -3 3 -13 -4
-23 -15z"/>
<path d="M1690 2260 c-9 -6 -10 -10 -3 -10 6 0 15 5 18 10 8 12 4 12 -15 0z"/>
<path d="M1370 2209 c-35 -31 -35 -31 -3 -9 18 11 35 25 38 30 10 16 2 11 -35
-21z"/>
<path d="M1504 2205 c-15 -20 -25 -37 -23 -39 2 -2 16 14 31 35 35 49 28 51
-8 4z"/>
<path d="M1584 2204 c-18 -14 -18 -14 6 -3 31 14 36 19 24 19 -6 0 -19 -7 -30
-16z"/>
<path d="M1300 2159 c-22 -18 -22 -19 -3 -10 12 6 25 16 28 21 9 15 3 12 -25
-11z"/>
<path d="M1175 1940 c-3 -5 -1 -10 4 -10 6 0 11 5 11 10 0 6 -2 10 -4 10 -3 0
-8 -4 -11 -10z"/>
<path d="M1335 1930 c-4 -12 -5 -24 -2 -27 3 -2 8 5 12 17 4 12 5 24 2 27 -3
2 -8 -5 -12 -17z"/>
<path d="M1180 1908 c0 -9 -12 -21 -27 -27 l-28 -11 27 5 c25 5 27 3 36 -58
l11 -62 -6 80 c-3 44 -7 82 -9 84 -2 2 -4 -3 -4 -11z"/>
<path d="M1096 1895 c-11 -8 -15 -15 -9 -15 6 0 16 7 23 15 16 19 11 19 -14 0z"/>
<path d="M1322 1860 c0 -14 2 -19 5 -12 2 6 2 18 0 25 -3 6 -5 1 -5 -13z"/>
<path d="M1055 1860 c-3 -5 -1 -10 4 -10 6 0 11 5 11 10 0 6 -2 10 -4 10 -3 0
-8 -4 -11 -10z"/>
<path d="M780 1760 c-19 -11 -30 -19 -25 -19 6 0 26 8 45 19 19 11 31 19 25
19 -5 0 -26 -8 -45 -19z"/>
<path d="M1518 1754 c-39 -21 -35 -28 5 -8 37 19 44 24 31 24 -5 -1 -21 -8
-36 -16z"/>
<path d="M1175 1734 c-20 -16 -20 -16 2 -10 16 5 23 2 26 -11 3 -12 5 -8 6 10
1 31 -6 33 -34 11z"/>
<path d="M654 1694 c-18 -14 -18 -15 4 -4 12 6 22 13 22 15 0 8 -5 6 -26 -11z"/>
<path d="M1078 1689 c-21 -11 -38 -22 -38 -24 0 -5 79 32 89 41 12 11 -18 1
-51 -17z"/>
<path d="M1207 1676 c-3 -8 -1 -16 6 -19 19 -6 -40 -75 -84 -97 -45 -23 -53
-35 -11 -18 15 6 46 30 70 52 31 29 42 36 42 23 0 -9 3 -17 8 -17 4 0 17 -17
30 -38 23 -38 98 -79 124 -69 8 3 5 6 -6 6 -11 1 -39 12 -62 26 -35 20 -50 39
-77 96 -22 45 -36 65 -40 55z"/>
<path d="M1335 1634 c25 -60 87 -115 127 -114 7 1 0 7 -17 14 -35 15 -105 89
-105 110 0 8 -5 18 -11 21 -5 4 -3 -10 6 -31z"/>
<path d="M950 1624 c-36 -19 -54 -32 -41 -28 15 4 27 1 32 -7 7 -11 9 -9 9 7
0 14 13 27 43 41 23 12 38 22 32 22 -5 0 -39 -16 -75 -35z"/>
<path d="M1147 1635 c-37 -26 -52 -44 -19 -26 23 14 68 50 62 51 -3 0 -22 -11
-43 -25z"/>
<path d="M1589 1623 l-34 -38 38 34 c34 33 42 41 34 41 -2 0 -19 -17 -38 -37z"/>
<path d="M1038 1556 c-69 -52 -238 -197 -238 -204 0 -6 27 15 85 68 28 25 87
74 133 110 72 55 89 71 80 70 -2 0 -29 -20 -60 -44z"/>
<path d="M828 1563 c-27 -14 -46 -28 -45 -30 5 -4 97 47 97 53 0 6 -1 5 -52
-23z"/>
<path d="M1445 1570 c-25 -11 1 -11 35 0 20 6 21 8 5 8 -11 0 -29 -3 -40 -8z"/>
<path d="M1509 1551 c-13 -11 -21 -22 -18 -25 3 -3 16 5 29 19 28 30 22 33
-11 6z"/>
<path d="M993 1478 c-65 -46 -151 -118 -140 -118 3 0 27 19 53 41 27 23 72 57
101 77 47 31 60 42 50 42 -2 0 -31 -19 -64 -42z"/>
<path d="M1110 1499 c-7 -11 -10 -23 -7 -25 2 -2 9 7 15 21 14 30 7 33 -8 4z"/>
<path d="M1215 1500 c-46 -21 -59 -24 -50 -10 3 6 4 10 1 10 -8 0 -36 -57 -36
-72 0 -7 6 -2 13 12 8 16 35 34 77 52 36 15 58 27 50 27 -8 0 -33 -9 -55 -19z"/>
<path d="M1550 1489 c0 -5 5 -7 10 -4 6 3 10 8 10 11 0 2 -4 4 -10 4 -5 0 -10
-5 -10 -11z"/>
<path d="M1090 1453 c0 -6 -29 -29 -65 -52 -35 -23 -68 -47 -72 -54 -4 -7 4
-4 17 6 57 40 100 67 109 67 11 0 24 31 16 38 -3 3 -5 1 -5 -5z"/>
<path d="M1384 1418 c-47 -51 -111 -138 -101 -138 2 0 19 21 38 48 18 26 49
64 68 85 18 20 31 37 29 37 -2 0 -18 -15 -34 -32z"/>
<path d="M1489 1423 l-24 -28 28 24 c25 23 32 31 24 31 -2 0 -14 -12 -28 -27z"/>
<path d="M1081 1394 c0 -11 3 -14 6 -6 3 7 2 16 -1 19 -3 4 -6 -2 -5 -13z"/>
<path d="M1121 1388 c-1 -15 4 -30 9 -33 12 -7 12 12 0 40 -8 18 -9 17 -9 -7z"/>
<path d="M1419 1333 c-13 -16 -12 -17 4 -4 9 7 17 15 17 17 0 8 -8 3 -21 -13z"/>
<path d="M770 1325 c-11 -13 -10 -14 4 -9 9 3 16 10 16 15 0 13 -6 11 -20 -6z"/>
<path d="M870 1273 l-65 -68 68 65 c37 35 67 66 67 67 0 8 -10 -2 -70 -64z"/>
<path d="M734 1278 l-19 -23 23 19 c21 18 27 26 19 26 -2 0 -12 -10 -23 -22z"/>
<path d="M1150 1281 c0 -16 28 -81 34 -81 3 0 -2 19 -11 43 -19 48 -23 55 -23
38z"/>
<path d="M1251 1234 c-12 -20 -20 -39 -17 -41 2 -3 14 13 26 36 25 51 20 54
-9 5z"/>
<path d="M1355 1229 c-9 -17 -15 -33 -13 -35 3 -2 12 12 21 31 21 43 13 47 -8
4z"/>
<path d="M1101 1215 c0 -5 6 -21 14 -35 8 -14 14 -20 14 -15 0 6 -6 21 -14 35
-8 14 -14 21 -14 15z"/>
<path d="M1165 1100 c10 -11 20 -20 23 -20 3 0 -3 9 -13 20 -10 11 -20 20 -23
20 -3 0 3 -9 13 -20z"/>
<path d="M1445 1050 c-8 -13 5 -13 25 0 13 8 13 10 -2 10 -9 0 -20 -4 -23 -10z"/>
<path d="M1297 1023 c-9 -8 -7 -197 2 -238 3 -16 6 32 6 107 0 76 0 138 -1
138 0 0 -4 -3 -7 -7z"/>
<path d="M1231 695 c0 -5 6 -21 14 -35 8 -14 14 -20 14 -15 0 6 -6 21 -14 35
-8 14 -14 21 -14 15z"/>
<path d="M1405 659 c-16 -10 -24 -19 -17 -19 8 0 10 -5 6 -12 -4 -7 7 0 24 16
46 43 40 49 -13 15z"/>
<path d="M1115 645 c17 -8 37 -14 45 -14 8 0 -1 7 -20 14 -46 18 -64 17 -25 0z"/>
<path d="M1348 633 c7 -3 16 -2 19 1 4 3 -2 6 -13 5 -11 0 -14 -3 -6 -6z"/>
<path d="M1363 612 c-10 -7 -10 -12 0 -25 11 -16 12 -15 12 8 0 14 0 25 0 25
0 0 -6 -4 -12 -8z"/>
<path d="M1752 570 c0 -14 2 -19 5 -12 2 6 2 18 0 25 -3 6 -5 1 -5 -13z"/>
<path d="M1800 586 c0 -14 69 -123 87 -137 17 -13 17 -12 1 6 -9 11 -32 47
-52 80 -20 33 -36 56 -36 51z"/>
<path d="M1290 576 c0 -2 7 -9 15 -16 13 -11 14 -10 9 4 -5 14 -24 23 -24 12z"/>
<path d="M2298 573 c6 -2 18 -2 25 0 6 3 1 5 -13 5 -14 0 -19 -2 -12 -5z"/>
<path d="M2272 547 c-6 -7 -34 -24 -62 -37 -61 -29 -60 -38 2 -10 37 16 93 60
76 60 -3 0 -10 -6 -16 -13z"/>
<path d="M1350 506 c19 -21 49 -47 65 -58 35 -25 29 -18 -45 48 -44 39 -48 41
-20 10z"/>
<path d="M1860 534 c0 -11 38 -74 45 -74 2 0 -5 17 -17 38 -27 46 -28 48 -28
36z"/>
<path d="M1445 465 c23 -29 33 -46 22 -42 -9 3 -17 5 -17 3 0 -5 92 -57 95
-54 0 2 -31 34 -69 73 -60 59 -65 62 -31 20z"/>
<path d="M1725 260 c-3 -6 1 -7 9 -4 18 7 21 14 7 14 -6 0 -13 -4 -16 -10z"/>
<path d="M2930 3232 c0 -5 -26 -29 -57 -53 -32 -24 -93 -79 -137 -123 l-79
-81 39 -17 c60 -27 103 -32 143 -18 43 15 101 57 101 72 0 7 -15 -1 -32 -18
l-33 -29 29 32 c16 18 33 30 38 27 24 -15 36 100 18 168 -10 35 -30 61 -30 40z
m1 -44 c-5 -13 -13 -24 -20 -24 -6 -1 -16 -2 -21 -3 -17 -2 -170 -153 -170
-167 0 -8 -10 -14 -22 -14 -19 0 -11 12 47 71 67 68 172 157 187 158 4 1 4 -9
-1 -21z m12 -95 c-3 -26 -17 -50 -41 -75 -20 -21 -40 -38 -44 -38 -4 0 5 12
20 28 35 34 65 95 50 101 -6 2 -5 7 3 12 8 5 15 9 15 9 1 0 0 -17 -3 -37z
m-93 -27 c0 -2 -8 -10 -17 -17 -16 -13 -17 -12 -4 4 13 16 21 21 21 13z m-40
-106 c-8 -5 -22 -9 -30 -9 -10 0 -8 3 5 9 27 12 43 12 25 0z"/>
<path d="M2587 3149 c4 -13 8 -18 11 -10 2 7 -1 18 -6 23 -8 8 -9 4 -5 -13z"/>
<path d="M2221 2424 c0 -11 3 -14 6 -6 3 7 2 16 -1 19 -3 4 -6 -2 -5 -13z"/>
<path d="M2311 2244 c0 -11 3 -14 6 -6 3 7 2 16 -1 19 -3 4 -6 -2 -5 -13z"/>
<path d="M2320 2211 c0 -6 4 -13 10 -16 6 -3 7 1 4 9 -7 18 -14 21 -14 7z"/>
<path d="M3543 2077 c0 -7 9 -13 19 -13 10 0 18 1 18 3 0 1 -8 7 -18 12 -13 7
-19 6 -19 -2z"/>
<path d="M3873 1833 l-33 -4 0 -105 c0 -102 0 -104 23 -104 41 0 115 31 130
53 37 57 30 130 -14 152 -28 15 -42 16 -106 8z m77 -79 c0 -21 -18 -54 -30
-54 -6 0 -10 16 -10 35 0 28 4 35 20 35 11 0 20 -7 20 -16z"/>
<path d="M3880 1561 l-35 -6 -3 -122 c-1 -68 1 -123 5 -123 3 0 32 7 64 16 82
23 121 66 127 138 4 48 1 57 -21 80 -27 27 -59 31 -137 17z m87 -113 c-3 -8
-6 -5 -6 6 -1 11 2 17 5 13 3 -3 4 -12 1 -19z"/>
<path d="M1827 1593 c-4 -3 -7 -181 -7 -394 l0 -388 72 20 c166 46 244 151
267 359 22 197 -28 355 -126 396 -33 14 -194 20 -206 7z m128 -83 c-23 -44 -8
-57 24 -20 24 29 27 30 48 15 67 -48 92 -279 45 -420 -34 -101 -83 -156 -159
-179 l-22 -7 -1 321 -1 320 41 0 41 0 -16 -30z m13 -15 c-6 -14 -13 -23 -15
-21 -5 5 15 46 22 46 3 0 -1 -11 -7 -25z"/>
<path d="M2074 1328 c-4 -7 -14 -24 -22 -38 -14 -24 -13 -24 3 -5 20 24 37 55
31 55 -3 0 -8 -6 -12 -12z"/>
<path d="M2010 1220 c-6 -11 -8 -20 -6 -20 3 0 10 9 16 20 6 11 8 20 6 20 -3
0 -10 -9 -16 -20z"/>
<path d="M1950 1109 c-7 -11 -10 -23 -7 -25 2 -2 9 7 15 21 14 30 7 33 -8 4z"/>
<path d="M4840 388 c0 -9 7 -31 16 -49 l15 -34 -5 39 c-5 40 -26 75 -26 44z"/>
<path d="M4935 319 c-4 -6 -5 -12 -2 -15 2 -3 7 2 10 11 7 17 1 20 -8 4z"/>
<path d="M4900 301 c0 -6 -6 -11 -14 -11 -9 0 -12 -7 -9 -20 7 -25 23 -26 23
-1 0 11 5 21 12 23 9 3 9 6 0 12 -7 4 -12 2 -12 -3z"/>
<path d="M4026 314 c3 -28 26 -51 33 -33 4 13 -19 59 -29 59 -4 0 -6 -12 -4
-26z"/>
<path d="M4035 4139 c-16 -10 -40 -19 -52 -19 -27 0 -38 -19 -51 -88 -11 -59
-9 -61 58 -37 24 8 48 15 54 14 34 -4 56 3 56 17 0 24 87 104 113 104 13 0 32
7 43 15 17 13 8 14 -86 14 -86 0 -110 -4 -135 -20z"/>
<path d="M3110 4105 c13 -14 26 -25 28 -25 3 0 -5 11 -18 25 -13 14 -26 25
-28 25 -3 0 5 -11 18 -25z"/>
<path d="M3240 3986 c0 -2 8 -10 18 -17 15 -13 16 -12 3 4 -13 16 -21 21 -21
13z"/>
<path d="M3410 3835 c13 -14 26 -25 28 -25 3 0 -5 11 -18 25 -13 14 -26 25
-28 25 -3 0 5 -11 18 -25z"/>
<path d="M3340 3772 c35 -45 71 -88 79 -95 8 -7 -14 25 -49 71 -35 45 -71 88
-79 95 -8 7 14 -25 49 -71z"/>
<path d="M5146 3693 c-11 -11 -6 -23 9 -23 8 0 15 4 15 9 0 13 -16 22 -24 14z"/>
<path d="M358 3663 c6 -2 18 -2 25 0 6 3 1 5 -13 5 -14 0 -19 -2 -12 -5z"/>
<path d="M3464 3620 c53 -61 63 -71 39 -35 -12 17 -34 41 -49 55 -19 17 -15
10 10 -20z"/>
<path d="M3526 3623 c21 -18 46 -33 54 -33 8 0 37 -11 63 -25 26 -14 55 -24
65 -23 11 2 22 -8 32 -29 8 -18 21 -33 29 -33 8 0 22 -7 31 -15 15 -14 19 -14
29 -1 11 13 8 19 -11 38 -14 13 -27 31 -31 41 -9 23 -39 34 -115 40 -38 3 -68
10 -75 19 -20 24 -71 55 -91 55 -14 0 -9 -8 20 -34z"/>
<path d="M3565 3510 c10 -11 20 -20 23 -20 3 0 -3 9 -13 20 -10 11 -20 20 -23
20 -3 0 3 -9 13 -20z"/>
<path d="M3711 3513 c-1 -6 -4 -18 -7 -27 -4 -11 -1 -16 10 -16 18 0 19 6 6
35 -5 11 -9 15 -9 8z"/>
<path d="M3750 3427 c0 -19 4 -25 15 -21 8 4 15 10 15 14 0 4 -7 13 -15 20
-13 11 -15 8 -15 -13z"/>
<path d="M4958 3433 c6 -2 18 -2 25 0 6 3 1 5 -13 5 -14 0 -19 -2 -12 -5z"/>
<path d="M503 3393 c9 -2 23 -2 30 0 6 3 -1 5 -18 5 -16 0 -22 -2 -12 -5z"/>
<path d="M4676 2718 l-17 -33 20 24 c18 20 27 41 18 41 -1 0 -11 -15 -21 -32z"/>
<path d="M4604 2618 l-29 -33 33 29 c30 28 37 36 29 36 -2 0 -16 -15 -33 -32z"/>
<path d="M4544 2548 l-29 -33 33 29 c17 17 32 31 32 33 0 8 -8 1 -36 -29z"/>
<path d="M4498 2488 c-15 -23 -35 -78 -25 -68 8 8 48 90 43 90 -2 0 -10 -10
-18 -22z"/>
<path d="M326 2381 l-40 -26 27 -9 c15 -6 27 -13 27 -18 0 -4 9 -8 20 -8 11 0
20 -6 20 -13 0 -19 64 -47 107 -47 l36 0 -7 46 c-13 98 -103 133 -190 75z"/>
<path d="M0 2202 c0 -112 5 -120 52 -77 l27 25 -20 56 c-11 30 -29 65 -39 77
-20 21 -20 21 -20 -81z"/>
<path d="M4069 2117 c5 -5 19 -7 32 -5 20 3 19 5 -9 9 -20 3 -29 2 -23 -4z"/>
<path d="M4334 2068 l-29 -33 33 29 c30 28 37 36 29 36 -2 0 -16 -15 -33 -32z"/>
<path d="M4367 1851 c-9 -16 -17 -39 -17 -50 0 -26 18 -19 64 24 15 14 29 25
30 23 21 -32 119 -159 127 -164 12 -7 -89 133 -125 174 -27 31 -58 28 -79 -7z"/>
<path d="M5129 1822 c-1 -4 -1 -11 0 -16 1 -5 -5 -6 -14 -2 -9 3 -13 2 -10 -4
3 -6 1 -10 -6 -10 -7 0 -10 -2 -7 -5 7 -7 68 15 68 25 0 10 -30 22 -31 12z"/>
<path d="M4352 1750 c0 -14 2 -19 5 -12 2 6 2 18 0 25 -3 6 -5 1 -5 -13z"/>
<path d="M4600 1640 c12 -16 24 -30 26 -30 3 0 -4 14 -16 30 -12 17 -24 30
-26 30 -3 0 4 -13 16 -30z"/>
<path d="M464 1548 l-29 -33 33 29 c30 28 37 36 29 36 -2 0 -16 -15 -33 -32z"/>
<path d="M524 1358 l-19 -23 23 19 c21 18 27 26 19 26 -2 0 -12 -10 -23 -22z"/>
<path d="M4472 1258 c17 -62 32 -115 33 -117 2 -1 8 0 14 4 16 9 13 47 -5 73
-10 14 -14 33 -10 47 3 13 1 27 -4 30 -6 4 -17 22 -25 41 -30 72 -31 29 -3
-78z"/>
<path d="M444 1288 l-19 -23 23 19 c21 18 27 26 19 26 -2 0 -12 -10 -23 -22z"/>
<path d="M389 1233 l-24 -28 28 24 c15 14 27 26 27 28 0 8 -8 1 -31 -24z"/>
<path d="M5094 1225 c-3 -14 -10 -25 -15 -25 -5 0 -9 -5 -9 -12 0 -9 3 -9 11
-1 6 6 18 9 26 6 12 -5 13 -2 6 13 -6 10 -8 25 -6 32 3 6 2 12 -1 12 -3 0 -8
-11 -12 -25z"/>
<path d="M5121 1228 c1 -7 5 -24 9 -38 7 -22 8 -21 9 13 1 20 -3 37 -9 37 -5
0 -10 -6 -9 -12z"/>
<path d="M639 1173 c-13 -16 -12 -17 4 -4 9 7 17 15 17 17 0 8 -8 3 -21 -13z"/>
<path d="M5163 1165 c-10 -10 -9 -14 2 -18 7 -3 16 1 19 8 7 20 -6 26 -21 10z"/>
<path d="M319 1153 c-13 -16 -12 -17 4 -4 16 13 21 21 13 21 -2 0 -10 -8 -17
-17z"/>
<path d="M5102 1153 c-6 -2 -10 -9 -7 -13 7 -11 35 -2 35 11 0 10 -8 10 -28 2z"/>
<path d="M609 1133 c-13 -16 -12 -17 4 -4 9 7 17 15 17 17 0 8 -8 3 -21 -13z"/>
<path d="M570 1080 c-12 -16 -19 -30 -16 -30 2 0 14 14 26 30 12 17 19 30 16
30 -2 0 -14 -13 -26 -30z"/>
<path d="M5131 1091 c-10 -6 -9 -10 3 -14 12 -5 14 -14 10 -37 -6 -25 -3 -30
13 -30 16 0 19 -5 15 -26 -4 -20 -1 -25 9 -22 16 5 25 78 10 78 -6 0 -11 7
-11 15 0 8 -7 15 -16 15 -8 0 -13 4 -9 9 8 13 -8 21 -24 12z"/>
<path d="M249 1063 c-13 -16 -12 -17 4 -4 16 13 21 21 13 21 -2 0 -10 -8 -17
-17z"/>
<path d="M4390 1054 c0 -18 59 -94 73 -94 6 0 2 8 -10 18 -11 9 -31 33 -42 52
-12 19 -21 30 -21 24z"/>
<path d="M510 984 c-12 -19 -21 -37 -18 -39 2 -2 14 14 26 36 28 49 22 52 -8
3z"/>
<path d="M190 970 c-6 -11 -8 -20 -6 -20 3 0 10 9 16 20 6 11 8 20 6 20 -3 0
-10 -9 -16 -20z"/>
<path d="M4329 965 c6 -11 20 -31 31 -45 15 -17 18 -19 11 -5 -6 11 -20 31
-31 45 -15 17 -18 19 -11 5z"/>
<path d="M5155 940 c3 -5 8 -10 11 -10 2 0 4 5 4 10 0 6 -5 10 -11 10 -5 0 -7
-4 -4 -10z"/>
<path d="M775 911 c8 -17 19 -33 25 -36 5 -3 1 10 -11 29 -25 43 -36 48 -14 7z"/>
<path d="M5185 909 c-4 -12 -3 -25 2 -30 5 -5 10 4 11 21 3 35 -4 39 -13 9z"/>
<path d="M4496 904 c-9 -23 -7 -62 2 -68 5 -3 10 15 10 39 2 47 -2 56 -12 29z"/>
<path d="M451 859 c-6 -18 -11 -37 -10 -43 0 -6 7 7 15 28 8 22 12 41 10 43
-2 2 -9 -10 -15 -28z"/>
<path d="M4740 870 c0 -5 6 -10 14 -10 8 0 18 5 21 10 3 6 -3 10 -14 10 -12 0
-21 -4 -21 -10z"/>
<path d="M126 845 c-9 -26 -7 -32 5 -12 6 10 9 21 6 23 -2 3 -7 -2 -11 -11z"/>
<path d="M860 805 c30 -30 57 -55 59 -55 3 0 -19 25 -49 55 -30 30 -57 55 -59
55 -3 0 19 -25 49 -55z"/>
<path d="M5135 840 c3 -5 8 -10 11 -10 2 0 4 5 4 10 0 6 -5 10 -11 10 -5 0 -7
-4 -4 -10z"/>
<path d="M5178 837 c-3 -6 1 -25 8 -42 l14 -30 -2 38 c-2 39 -12 57 -20 34z"/>
<path d="M4835 829 c-11 -17 1 -21 15 -4 8 9 8 15 2 15 -6 0 -14 -5 -17 -11z"/>
<path d="M4736 811 c-2 -3 -9 -25 -16 -49 -11 -43 -3 -72 21 -72 17 0 9 20 -8
20 -14 1 -12 5 10 21 26 20 27 22 11 40 -15 17 -15 19 0 25 9 3 16 9 16 13 0
9 -29 10 -34 2z"/>
<path d="M4680 791 c0 -5 5 -13 10 -16 6 -3 10 -2 10 4 0 5 -4 13 -10 16 -5 3
-10 2 -10 -4z"/>
<path d="M4895 780 c3 -5 8 -10 11 -10 2 0 4 5 4 10 0 6 -5 10 -11 10 -5 0 -7
-4 -4 -10z"/>
<path d="M5155 779 c-4 -6 -5 -12 -2 -15 2 -3 7 2 10 11 7 17 1 20 -8 4z"/>
<path d="M4852 718 c6 -18 28 -21 28 -4 0 9 -7 16 -16 16 -9 0 -14 -5 -12 -12z"/>
<path d="M775 700 c10 -11 20 -20 23 -20 3 0 -3 9 -13 20 -10 11 -20 20 -23
20 -3 0 3 -9 13 -20z"/>
<path d="M4958 691 c2 -17 8 -34 13 -37 14 -8 10 30 -4 51 -13 16 -14 15 -9
-14z"/>
<path d="M5070 670 c-9 -6 -10 -10 -3 -10 6 0 15 5 18 10 8 12 4 12 -15 0z"/>
<path d="M820 656 c0 -2 8 -10 18 -17 15 -13 16 -12 3 4 -13 16 -21 21 -21 13z"/>
<path d="M5125 630 c3 -5 8 -10 11 -10 2 0 4 5 4 10 0 6 -5 10 -11 10 -5 0 -7
-4 -4 -10z"/>
<path d="M907 589 c7 -7 15 -10 18 -7 3 3 -2 9 -12 12 -14 6 -15 5 -6 -5z"/>
<path d="M380 406 c0 -2 8 -10 18 -17 15 -13 16 -12 3 4 -13 16 -21 21 -21 13z"/>
<path d="M450 395 c0 -5 5 -17 10 -25 5 -8 10 -10 10 -5 0 6 -5 17 -10 25 -5
8 -10 11 -10 5z"/>
<path d="M5191 384 c0 -11 3 -14 6 -6 3 7 2 16 -1 19 -3 4 -6 -2 -5 -13z"/>
<path d="M490 309 c0 -8 10 -20 23 -28 l22 -14 -20 24 c-11 13 -21 26 -22 28
-2 2 -3 -2 -3 -10z"/>
<path d="M3457 304 c-10 -11 -8 -54 2 -54 14 0 25 40 14 51 -5 5 -12 6 -16 3z"/>
<path d="M5174 283 c-3 -16 -10 -42 -14 -59 -7 -29 -6 -32 16 -30 22 1 24 5
24 59 0 59 -15 77 -26 30z"/>
<path d="M651 248 c0 -9 -4 -25 -7 -35 -5 -17 -5 -17 6 0 6 10 9 25 7 35 -4
15 -5 15 -6 0z"/>
<path d="M4320 240 c0 -6 8 -27 17 -48 l17 -37 4 33 c3 32 -11 62 -29 62 -5 0
-9 -5 -9 -10z"/>
<path d="M5125 227 c-4 -10 -5 -21 -1 -24 10 -10 18 4 13 24 -4 17 -4 17 -12
0z"/>
<path d="M45 201 c-3 -5 2 -17 12 -26 13 -13 13 -19 4 -25 -17 -10 1 -45 31
-61 19 -10 20 -12 5 -21 -10 -5 -22 -6 -27 -3 -14 9 -13 -8 2 -23 8 -8 18 -3
39 21 33 37 37 52 10 37 -29 -15 -38 7 -12 29 25 21 27 33 6 25 -8 -4 -15 -1
-15 5 0 6 -7 11 -15 11 -8 0 -15 9 -15 20 0 21 -14 27 -25 11z"/>
<path d="M3440 200 c0 -5 5 -10 10 -10 6 0 10 5 10 10 0 6 -4 10 -10 10 -5 0
-10 -4 -10 -10z"/>
<path d="M4286 201 c-7 -11 10 -60 29 -81 19 -22 29 -96 14 -106 -8 -4 -10 -3
-5 4 4 7 3 12 -3 12 -17 0 -21 -18 -5 -24 40 -15 54 -7 54 32 0 67 -12 114
-26 108 -9 -3 -19 7 -28 29 -16 37 -21 41 -30 26z"/>
<path d="M627 183 c-2 -5 -1 -19 4 -33 7 -23 7 -23 8 8 1 31 -3 40 -12 25z"/>
<path d="M650 169 c0 -11 5 -17 10 -14 6 3 10 13 10 21 0 8 -4 14 -10 14 -5 0
-10 -9 -10 -21z"/>
<path d="M4601 154 c-9 -22 -9 -31 4 -50 8 -13 15 -34 15 -48 0 -35 10 -56 27
-56 11 0 13 11 9 52 -11 125 -29 158 -55 102z"/>
<path d="M1281 154 c-2 -30 10 -84 19 -84 3 0 7 14 7 30 0 17 -4 30 -8 30 -4
0 -10 10 -12 23 -4 21 -4 21 -6 1z"/>
<path d="M5158 154 c-7 -12 20 -104 30 -104 5 0 8 15 9 33 1 33 -29 88 -39 71z"/>
<path d="M950 133 c0 -13 5 -23 10 -23 13 0 13 11 0 30 -8 12 -10 11 -10 -7z"/>
<path d="M924 112 c1 -18 6 -36 12 -40 5 -4 11 -18 11 -31 2 -30 5 -33 44 -34
19 -1 34 3 37 11 3 11 0 12 -16 3 -15 -8 -23 -7 -32 4 -11 13 -10 14 4 9 12
-5 15 -2 10 10 -3 9 -1 16 5 16 6 0 11 4 11 10 0 5 -3 9 -7 9 -26 -4 -53 3
-53 14 0 7 -6 22 -14 32 -13 18 -14 17 -12 -13z"/>
<path d="M4120 123 c0 -13 58 -103 67 -103 3 0 2 11 -1 24 -7 27 -66 98 -66
79z"/>
<path d="M650 111 c0 -5 9 -7 20 -4 11 3 20 7 20 9 0 2 -9 4 -20 4 -11 0 -20
-4 -20 -9z"/>
<path d="M2025 90 l-29 -30 33 -30 c48 -45 74 -39 30 6 -27 29 -29 34 -11 24
13 -6 25 -10 27 -8 5 6 -7 68 -14 68 -4 0 -20 -14 -36 -30z"/>
<path d="M600 101 c0 -5 5 -13 10 -16 6 -3 10 -2 10 4 0 5 -4 13 -10 16 -5 3
-10 2 -10 -4z"/>
<path d="M4390 86 c0 -47 21 -74 33 -42 6 16 -13 66 -25 66 -5 0 -8 -11 -8
-24z"/>
<path d="M4467 103 c-4 -3 -7 -11 -7 -17 0 -6 5 -5 12 2 6 6 9 14 7 17 -3 3
-9 2 -12 -2z"/>
<path d="M1263 84 c-15 -15 -17 -28 -4 -20 10 7 23 -19 14 -28 -4 -3 -12 -1
-20 5 -22 19 -15 1 9 -21 23 -21 58 -27 58 -10 0 6 -7 10 -15 10 -9 0 -15 6
-14 12 1 7 0 20 -4 28 -3 8 -7 20 -9 27 -2 8 -7 7 -15 -3z"/>
<path d="M3535 91 c-3 -6 -12 -28 -20 -50 l-14 -41 34 0 c42 0 49 11 35 55
-12 38 -25 51 -35 36z"/>
<path d="M1470 73 c1 -14 40 -59 40 -46 0 6 -5 15 -11 18 -6 4 -8 13 -5 21 3
8 -1 14 -9 14 -8 0 -15 -3 -15 -7z"/>
<path d="M1567 59 c-4 -16 -3 -18 9 -8 16 13 19 29 5 29 -5 0 -11 -9 -14 -21z"/>
<path d="M4493 65 c-3 -10 3 -25 15 -38 20 -19 22 -19 28 -3 4 11 -1 24 -15
37 -19 18 -22 18 -28 4z"/>
<path d="M280 41 c0 -25 6 -27 13 -6 4 8 2 17 -3 20 -6 4 -10 -3 -10 -14z"/>
<path d="M646 38 c-9 -34 -8 -38 10 -38 13 0 14 3 5 14 -8 10 -9 16 -1 21 12
8 13 25 1 25 -5 0 -11 -10 -15 -22z"/>
<path d="M4570 51 c0 -11 39 -59 40 -49 0 14 -23 58 -32 58 -4 0 -8 -4 -8 -9z"/>
<path d="M140 35 c-17 -21 -8 -28 15 -11 11 8 14 15 8 19 -6 4 -16 0 -23 -8z"/>
<path d="M1955 20 c-18 -20 -17 -20 25 -20 42 0 43 0 25 20 -10 11 -21 20 -25
20 -4 0 -15 -9 -25 -20z"/>
<path d="M3865 20 c-9 -15 -1 -23 21 -18 15 3 16 4 1 16 -11 9 -17 10 -22 2z"/>
<path d="M4140 10 c0 -5 5 -10 10 -10 6 0 10 5 10 10 0 6 -4 10 -10 10 -5 0
-10 -4 -10 -10z"/>
</g>
</svg>
